<svg id="图层_1" data-name="图层 1" xmlns="http://www.w3.org/2000/svg" viewBox="0 0 240 240"><path d="M184.72,20A35.27,35.27,0,0,1,220,55.28V184.72A35.27,35.27,0,0,1,184.72,220H55.28A35.27,35.27,0,0,1,20,184.72V55.28A35.27,35.27,0,0,1,55.28,20Zm0,12.5H55.28A22.78,22.78,0,0,0,32.5,55.28V184.72A22.78,22.78,0,0,0,55.28,207.5H184.72a22.78,22.78,0,0,0,22.78-22.78V55.28A22.78,22.78,0,0,0,184.72,32.5Zm-77.55,152a6.24,6.24,0,0,1-11.84,0L78,132.51H42C35.72,127,39.55,120,45,120H82.5a6.23,6.23,0,0,1,5.92,4.27l12.83,38.47L132.83,68a6.25,6.25,0,0,1,11.81-.12l25.15,70.44L176.57,118a6.25,6.25,0,0,1,5.93-4.27H198c6.28,5.51,2.45,12.5-3,12.5h-8l-11.07,33.28a6.26,6.26,0,0,1-11.82.13L139,89.16Z"/></svg>