<svg height="512" viewBox="0 0 96 96" width="512" xmlns="http://www.w3.org/2000/svg"><g id="Layer_4"><g><path d="m87.237 45h-9.724c-1.367-14-12.513-25.071-26.513-26.36v-9.877c0-1.526-1.474-2.763-3-2.763s-3 1.237-3 2.763v9.883c-14 1.323-25.071 12.354-26.435 26.354h-9.802c-1.526 0-2.763 1.474-2.763 3s1.237 3 2.763 3h9.783c1.254 14 12.454 25.275 26.454 26.606v9.631c0 1.526 1.474 2.763 3 2.763s3-1.237 3-2.763v-9.625c14-1.297 25.276-12.612 26.532-26.612h9.705c1.526 0 2.763-1.474 2.763-3s-1.237-3-2.763-3zm-39.198 27.216c-13.283 0-24.09-10.807-24.09-24.09s10.807-24.09 24.09-24.09 24.089 10.807 24.089 24.09-10.806 24.09-24.089 24.09z"/><path d="m49.257 31.533c-2.713-.344-5.444.494-7.494 2.3-2.072 1.826-3.261 4.453-3.261 7.208 0 1.526 1.237 2.763 2.763 2.763s2.763-1.237 2.763-2.763c0-1.169.506-2.285 1.388-3.063.872-.768 1.988-1.109 3.145-.964 1.9.241 3.431 1.924 3.485 3.833.041 1.435-.662 2.744-1.88 3.501-3.017 1.875-4.891 5.337-4.891 9.034 0 1.526 1.237 2.763 2.763 2.763s2.763-1.237 2.763-2.763c0-1.802.875-3.465 2.282-4.34 2.864-1.78 4.583-4.98 4.487-8.352-.131-4.636-3.705-8.573-8.313-9.157z"/><circle cx="48.134" cy="62.015" r="2.814"/></g></g></svg>