<?xml version="1.0" encoding="UTF-8"?>
<svg id="_图层_1" data-name="图层 1" xmlns="http://www.w3.org/2000/svg" xmlns:xlink="http://www.w3.org/1999/xlink" viewBox="0 0 24 24">
  <defs>
    <style>
      .cls-1 {
        fill: none;
      }

      .cls-2 {
        fill: #c6c9d6;
      }

      .cls-3 {
        fill: #3dbfef;
      }

      .cls-4 {
        fill: url(#_未命名的渐变_16);
      }

      .cls-5 {
        fill: #1f3972;
      }

      .cls-6 {
        fill: #1f2950;
      }

      .cls-7 {
        fill: #a0a8c2;
      }

      .cls-8 {
        fill: #ebf2e5;
      }

      .cls-9 {
        clip-path: url(#clippath);
      }
    </style>
    <linearGradient id="_未命名的渐变_16" data-name="未命名的渐变 16" x1="4.93" y1="4.93" x2="19.07" y2="19.07" gradientUnits="userSpaceOnUse">
      <stop offset="0" stop-color="#7fa7ff"/>
      <stop offset="1" stop-color="#0037d4"/>
    </linearGradient>
    <clipPath id="clippath">
      <circle class="cls-1" cx="12" cy="12" r="10"/>
    </clipPath>
  </defs>
  <circle class="cls-4" cx="12" cy="12" r="10"/>
  <g class="cls-9">
    <g>
      <path class="cls-6" d="M18.6,23.01s-.01.09-.01.14c0,.11.02.22.02.32,0,.24-.14.42-.07.67.03.11.16.33.29.33.14,0,.22-.15.26-.26.06-.17.12-.32.2-.48.04-.08.08-.15.11-.24-.3-.13-.56-.29-.75-.43-.02-.02-.04-.04-.06-.05Z"/>
      <path class="cls-6" d="M21.66,23.31s.07.07.1.11c.1.1.22.21.36.18.11-.02.19-.14.2-.25.01-.11-.03-.23-.08-.33-.12-.25-.3-.47-.49-.67,0,.06.01.11.02.17.02.27,0,.56-.1.8Z"/>
      <path class="cls-6" d="M21.8,24.07c-.04-.22-.12-.43-.22-.63-.06.1-.15.18-.26.24-.11.06-.23.09-.36.11.08.18.17.36.27.54.07.12.16.26.3.26.11,0,.22-.08.26-.19.04-.11.03-.23.01-.34Z"/>
      <path class="cls-6" d="M20.11,23.74s0,.04.01.05c.05.22.11.43.17.64.04.13.11.28.24.32.11.03.23-.04.29-.13.06-.1.08-.22.08-.33,0-.16-.01-.32-.05-.48-.23.02-.49-.01-.75-.08Z"/>
      <path class="cls-8" d="M18.22,17.26c.03.26.03.53-.02.79-.05.25-.11.5-.1.76.01.45.26.95.45,1.36.05.11.1.21.15.32.38.77.9,1.51,1.62,1.99.18.12.39.22.6.23.23.01.46-.09.64-.22.05-.03.11-.11.18-.19-.23-2.18-1.64-4.14-3.37-5.43-.05-.03-.1-.07-.15-.11.03.16.03.33,0,.5Z"/>
      <path class="cls-2" d="M21.58,23.44s.05-.09.07-.14c.1-.24.12-.54.1-.8,0-.06,0-.11-.02-.17,0-.01,0-.02,0-.03-.07.08-.13.15-.18.19-.19.14-.41.23-.64.22-.22-.01-.42-.11-.6-.23-.73-.48-1.24-1.22-1.62-1.99-.05-.11-.1-.21-.15-.32-.18-.41-.43-.91-.45-1.36,0-.26.05-.51.1-.76.05-.26.06-.53.02-.79,0,0,0,.01,0,.02-.01.07-.03.14-.05.21,0,.03-.02.06-.03.09,0,.05,0,.09,0,.14-.02.2-.11.38-.17.56-.11.31-.14.62-.13.94.01.44.11.88.2,1.31.26,1.27.96,2.46,2.04,3.19.01,0,.03,0,.04,0,.26.06.52.09.75.08.04,0,.07,0,.1-.01.13-.02.25-.06.36-.11.11-.06.19-.14.26-.24Z"/>
      <path class="cls-7" d="M18.03,20.54c-.09-.43-.19-.87-.2-1.31-.01-.32.02-.63.13-.94.07-.19.16-.37.17-.56,0-.05,0-.09,0-.14-.18.55-.48,1.06-.88,1.48-.04.19-.09.39-.14.58.2.35.39.71.56,1.07,0,.01.01.03.02.04.19.41.35.83.49,1.26.12.36.15.73.42.99.02.02.04.04.06.05.19.15.45.3.75.43.21.09.43.17.66.23-1.08-.73-1.78-1.92-2.04-3.19Z"/>
      <path class="cls-5" d="M17.48,16.2c.11.27.17.56.18.86,0,.06,0,.13.04.19.03.05.08.07.14.08.11.02.26,0,.34-.02.01,0,.03-.01.04-.02,0,0,0-.01,0-.02.03-.17.04-.34,0-.5-.02-.11-.07-.21-.14-.3-.14-.18-.38-.28-.61-.27,0,0,0,0,0,0,0,0,0,0,0,0Z"/>
      <path class="cls-6" d="M17.84,17.33c-.06-.01-.12-.04-.14-.08-.03-.06-.03-.12-.04-.19-.01-.29-.08-.58-.18-.86,0,0,0,0,0,0,0,.07,0,.15.01.22.01.3,0,.59,0,.89-.01.25-.03.5-.06.74-.04.34-.1.68-.17,1.01.4-.42.7-.93.88-1.48.01-.03.02-.06.03-.09.02-.07.04-.14.05-.21-.01,0-.03.01-.04.02-.08.02-.22.05-.34.02Z"/>
      <path class="cls-6" d="M5.34,23.06c-.19.15-.45.3-.75.43.03.08.07.16.11.24.08.16.14.31.2.48.04.11.12.26.26.26.14,0,.26-.21.29-.33.07-.25-.08-.43-.07-.67,0-.11.02-.22.02-.32,0-.05,0-.09-.01-.14-.02.02-.04.04-.06.05Z"/>
      <path class="cls-6" d="M2.24,22.5c0-.06,0-.11.02-.17-.2.2-.37.42-.49.67-.05.1-.09.22-.08.33.01.11.09.23.2.25.14.03.26-.08.36-.18.03-.03.07-.07.1-.11-.1-.24-.12-.54-.1-.8Z"/>
      <path class="cls-6" d="M2.42,23.44c-.1.2-.18.41-.22.63-.02.11-.03.23.01.34.04.11.15.2.26.19.14,0,.23-.14.3-.26.1-.17.18-.35.27-.54-.13-.02-.25-.06-.36-.11-.11-.06-.19-.14-.26-.24Z"/>
      <path class="cls-6" d="M3.14,23.81c-.03.16-.05.32-.05.48,0,.11.02.23.08.33.06.1.18.16.29.13.13-.04.2-.19.24-.32.07-.21.12-.43.17-.64,0-.02,0-.04.01-.05-.26.06-.52.09-.75.08Z"/>
      <path class="cls-8" d="M2.47,22.49c.19.14.41.23.64.22.22-.01.42-.11.6-.23.73-.48,1.24-1.22,1.62-1.99.05-.11.1-.21.15-.32.18-.41.43-.91.45-1.36,0-.26-.05-.51-.1-.76-.04-.22-.05-.45-.03-.68-.05-.2-.07-.42-.03-.62-.06.04-.11.08-.15.11-1.72,1.28-3.12,3.23-3.36,5.39.08.1.16.19.21.22Z"/>
      <path class="cls-2" d="M6.01,20.54c.09-.43.19-.87.2-1.31.01-.32-.02-.63-.13-.94-.07-.19-.16-.37-.17-.56,0-.02,0-.03,0-.05-.02-.06-.04-.12-.06-.19,0-.03-.02-.07-.03-.1,0,0,0,0,0-.01-.02.23,0,.45.03.68.05.25.11.5.1.76-.01.45-.26.95-.45,1.36-.05.11-.1.21-.15.32-.38.77-.9,1.51-1.62,1.99-.18.12-.39.22-.6.23-.23.01-.46-.09-.64-.22-.05-.04-.13-.13-.21-.22,0,.02,0,.05,0,.07,0,.06-.01.11-.02.17-.02.27,0,.56.1.8.02.05.05.09.07.14.07.1.15.18.26.24.11.06.23.09.36.11.03,0,.07,0,.1.01.23.02.49-.01.75-.08.03,0,.07-.02.1-.03,1.06-.73,1.75-1.91,2.01-3.17Z"/>
      <path class="cls-7" d="M5.9,17.68s0,.03,0,.05c.02.2.11.38.17.56.11.31.14.62.13.94-.01.44-.11.88-.2,1.31-.26,1.26-.95,2.44-2.01,3.17.2-.06.4-.13.59-.21.3-.13.56-.29.75-.43.02-.02.04-.04.06-.05.27-.26.31-.63.42-.99.14-.43.31-.85.49-1.26,0-.01.01-.03.02-.04.16-.34.33-.68.52-1.01-.07-.24-.13-.48-.18-.72-.34-.38-.61-.83-.78-1.31Z"/>
      <path class="cls-5" d="M5.81,17.38s0,0,0,.01c.02,0,.05.01.08.01.08,0,.19-.05.27-.1.04-.03.07-.06.09-.09.03-.05.03-.1.04-.15.03-.23.09-.46.18-.68,0-.06,0-.12.01-.19-.21.01-.42.1-.56.27-.07.09-.11.19-.14.3-.04.2-.02.41.03.62Z"/>
      <path class="cls-6" d="M6.46,16.47s0-.06,0-.08c-.09.22-.15.44-.18.68,0,.05-.01.11-.04.15-.02.03-.05.06-.09.09-.08.06-.19.1-.27.1-.03,0-.05,0-.08-.01,0,.03.02.07.03.1.02.06.04.12.06.19.17.48.44.93.78,1.31-.04-.18-.07-.36-.1-.54-.02-.13-.04-.26-.06-.39-.06-.53-.09-1.06-.07-1.59Z"/>
      <path class="cls-6" d="M9,23.41s.05.1.08.15c.65.62,1.48,1.06,2.36,1.25.54.11,1.09.13,1.64.07.34-.09.66-.24.95-.43.38-.26.71-.62.92-1.03-1.33.5-4.62.5-5.95,0Z"/>
      <path class="cls-8" d="M17.49,16.43c-.69.31-1.43.55-2.17.71-.48.1-.97.18-1.46.22-1.15.11-2.33.05-3.48-.08-1.36-.16-2.67-.35-3.92-.81-.02.53,0,1.06.07,1.59.02.13.03.26.06.39.54.42,1.09.83,1.69,1.16,1.57.86,3.72,1.26,5.48.8.02,0,.04-.01.07-.02.82-.22,1.71-1.07,2.32-1.63.49-.45.94-.93,1.35-1.46.01-.3.02-.59,0-.89Z"/>
      <path class="cls-2" d="M10.87,22.95c-.99-.1-1.98-.33-2.91-.67.16.28.34.55.53.81.09.12.27.23.51.32,1.33.5,4.62.5,5.95,0,.24-.09.42-.2.51-.32.17-.24.34-.49.49-.75-.15.05-.3.1-.45.15-1.49.46-3.08.62-4.63.46Z"/>
      <path class="cls-2" d="M17.42,18.06c.03-.25.05-.49.06-.74-.41.52-.86,1.01-1.35,1.46-.61.56-1.5,1.41-2.32,1.63-.02,0-.04.01-.07.02-1.76.45-3.91.06-5.48-.8-.6-.33-1.15-.74-1.69-1.16.03.18.06.36.1.54.05.24.11.48.18.72.24.86.6,1.7,1.05,2.49.32.12.64.23.97.32,1.49.42,3.06.54,4.6.35.86-.11,1.7-.31,2.51-.6.49-.83.86-1.71,1.11-2.62.05-.19.1-.38.14-.58.07-.34.13-.67.17-1.01Z"/>
      <path class="cls-5" d="M13.48,22.87c-1.54.19-3.11.07-4.6-.35-.33-.09-.65-.2-.97-.32.02.03.03.05.05.08.94.35,1.92.57,2.91.67,1.55.16,3.14,0,4.63-.46.15-.05.3-.1.45-.15.02-.02.03-.05.05-.07-.81.29-1.66.49-2.51.6Z"/>
      <path class="cls-7" d="M6.46,16.47c1.25.46,2.56.65,3.92.81,1.15.13,2.33.19,3.48.08.49-.05.98-.12,1.46-.22.75-.16,1.48-.4,2.17-.71,0-.07,0-.15-.01-.22,0,0,0,0,0,0,0-.07,0-.14-.01-.2-1.77.17-9.21.17-10.98,0,0,.07,0,.14-.01.21,0,.06,0,.12-.01.19,0,.03,0,.06,0,.08Z"/>
      <path class="cls-5" d="M4.13,10.61c.06-.27.16-.72.17-.79.09-.32.2-.63.33-.94.02-.05.05-.13.08-.21.12-.4.25-.78.41-1.16.02-.04.04-.08.05-.13-.3.06-.55.15-.66.23-.16.13-.27.31-.36.49-.41.75-.64,1.54-.7,2.32.14.1.29.19.45.27.09.04.19,0,.21-.1Z"/>
      <path class="cls-5" d="M19.78,8.12c-.1-.18-.2-.35-.36-.49-.1-.09-.36-.17-.66-.23.02.04.04.08.06.13.24.56.43,1.15.57,1.75.06.09.12.15.15.25.09.25.16.51.26.75.03.08.06.15.09.23.22-.09.41-.22.57-.39-.09-.68-.31-1.35-.66-2Z"/>
      <path class="cls-6" d="M20.49,10.87c0-.25-.02-.5-.05-.75-.15.16-.34.29-.57.39-.03-.08-.06-.15-.09-.23-.09-.25-.17-.5-.26-.75-.04-.1-.09-.16-.15-.25.11.51.19,1.03.22,1.55.05.87-.03,1.74-.26,2.57-.1.35-.23.72-.4,1.07.32-.09.59-.19.7-.29.15-.15.25-.33.33-.51.42-.92.59-1.87.52-2.8Z"/>
      <path class="cls-6" d="M4.34,11.1c.02-.82.16-1.64.38-2.42-.03.08-.06.16-.08.21-.13.3-.24.62-.33.94-.02.06-.11.52-.17.79-.02.1-.13.15-.21.1-.16-.08-.31-.17-.45-.27-.01.14-.02.29-.02.43-.06.93.1,1.87.52,2.8.08.18.18.37.33.51.1.1.38.2.7.29-.17-.36-.3-.73-.4-1.07-.2-.74-.29-1.52-.27-2.3Z"/>
      <path class="cls-8" d="M19.38,9.27c-.14-.6-.33-1.19-.57-1.75-.02-.04-.04-.08-.06-.13-.25-.55-.55-1.06-1.05-1.43-.88-.67-10.48-.65-11.47,0-.52.34-.81.88-1.05,1.43-.02.04-.04.08-.05.13-.16.37-.3.76-.41,1.16-.23.78-.36,1.6-.38,2.42.15.18.32.34.5.5.26.22.57.56.91.32.27-.19.22-.52.24-.81.03-.3.06-.61.13-.91.04-.18.09-.35.15-.52.14-.71.42-1.38.93-1.91.13-.14,2.48-.19,4.77-.17,2.29-.01,4.64.04,4.77.17.42.45.69,1,.85,1.58.04.08.07.15.11.23.12.29.2.58.24.89l.14,1.01c.02.17.21.28.37.21.32-.14.62-.32.87-.56.11-.1.2-.2.28-.3-.03-.52-.1-1.04-.22-1.55Z"/>
      <path class="cls-2" d="M19.6,10.83c-.08.1-.17.21-.28.3-.26.24-.55.41-.87.56-.16.07-.34-.03-.37-.21l-.14-1.01c-.04-.31-.12-.6-.24-.89-.03-.08-.07-.16-.11-.23.1.39.16.8.17,1.2.04.22.07.44.07.66.03.88-.22,2.95-.76,3.21-.61.29-9.09.01-9.7-.04-.51-.04-.67-.31-.83-.79-.13-.42-.21-.86-.23-1.3-.16-.79-.22-1.73-.05-2.61-.06.17-.11.35-.15.52-.07.3-.1.6-.13.91-.03.29.03.62-.24.81-.34.24-.66-.11-.91-.32-.18-.15-.35-.32-.5-.5-.02.78.06,1.56.27,2.3.1.35.23.72.4,1.07.27.56.63,1.09,1.11,1.45.03.02.16.05.37.07,1.77.17,9.21.17,10.98,0,.21-.02.34-.04.37-.07.48-.36.84-.89,1.11-1.45.17-.36.3-.73.4-1.07.23-.83.31-1.7.26-2.57Z"/>
      <path class="cls-7" d="M16.85,14.1c-.15.09-2.54.13-4.88.13-2.34,0-4.73-.04-4.88-.13-.25-.15-.58-.87-.78-1.81.02.44.1.89.23,1.3.15.48.32.75.83.79.61.05,9.09.33,9.7.04.55-.26.8-2.33.76-3.21,0-.22-.03-.45-.07-.66.07,1.68-.53,3.32-.92,3.56Z"/>
      <path class="cls-6" d="M17.77,10.55c-.02-.4-.07-.81-.17-1.2-.16-.59-.43-1.14-.85-1.58-.13-.14-2.48-.19-4.77-.17-2.29-.01-4.64.04-4.77.17-.5.53-.79,1.2-.93,1.91-.17.89-.11,1.83.05,2.61.19.94.52,1.66.78,1.81.15.09,2.54.13,4.88.13,2.34,0,4.73-.04,4.88-.13.39-.23.99-1.87.92-3.56Z"/>
      <path class="cls-5" d="M7.1,10.39c-.07.37-.13.77,0,1.12.21.57.83.62,1.36.6.02,0,.04,0,.06,0-.08-.16-.13-.35-.14-.52-.03-.44.02-2.11.24-2.35.32-.35,1.01-.35,1.33,0,.22.24.27,1.92.24,2.35,0,.14-.04.29-.09.42.8-.06,1.6-.15,2.38-.28.43-.07.86-.15,1.28-.24-.02-.54.04-2.03.24-2.26.32-.35,1.01-.35,1.33,0,.16.17.23,1.08.24,1.74.2-.1.4-.22.58-.39.37-.34.68-.9.43-1.41-.14-.29-.41-.49-.7-.62-.29-.13-.61-.18-.92-.23-2.07-.34-4.2-.56-6.26-.13-.26.05-.54.11-.77.24-.2.12-.3.34-.41.54-.22.45-.34.93-.43,1.42Z"/>
      <path class="cls-3" d="M9.95,9.24c-.32-.35-1.01-.35-1.33,0-.22.24-.27,1.92-.24,2.35.01.18.05.36.14.52.07.13.16.24.28.32.26.17.71.18.98,0,.15-.1.26-.25.32-.42.05-.14.08-.28.09-.42.03-.44-.02-2.11-.24-2.35Z"/>
      <path class="cls-3" d="M14,9.24c-.21.22-.26,1.71-.24,2.26,0,.04,0,.07,0,.09.02.32.14.66.42.84.26.17.71.18.98,0,.27-.18.4-.52.42-.84,0-.12,0-.35,0-.61-.02-.66-.09-1.57-.24-1.74-.32-.35-1.01-.35-1.33,0Z"/>
      <path class="cls-5" d="M11.44,24.81c-.88-.19-1.71-.63-2.36-1.25.21.35.5.66.84.88.6.4,1.33.58,2.05.57.37,0,.75-.04,1.11-.14-.54.07-1.1.05-1.64-.07Z"/>
    </g>
  </g>
</svg>