<?xml version="1.0" encoding="UTF-8"?>
<svg id="_图层_2" data-name="图层 2" xmlns="http://www.w3.org/2000/svg" viewBox="0 0 200 200">
  <defs>
    <style>
      .cls-1 {
        fill: #ffd982;
      }

      .cls-2 {
        fill: #ffcd59;
      }

      .cls-3 {
        fill: #ffc130;
      }

      .cls-4 {
        fill: #fff8e9;
      }

      .cls-5 {
        fill: #ffc745;
      }
    </style>
  </defs>
  <g id="_图层_1-2" data-name="图层 1">
    <g>
      <path class="cls-4" d="M0,100c0,55.23,44.77,100,100,100s100-44.77,100-100S155.23,0,100,0,0,44.77,0,100Z"/>
      <g>
        <path class="cls-3" d="M151.89,136.63c0,11.78-9.59,21.37-21.37,21.37h-15.08v-15.26c0-8.43-6.84-15.26-15.27-15.26-8.42,0-15.25,6.83-15.26,15.26v15.26h-15.45c-11.78,0-21.37-9.59-21.37-21.37v-28.39c4.88,2.5,10.32,3.97,15.2,3.97,6.9,0,13.61-2.87,18.38-7.45,4.7,4.58,11.42,7.45,18.32,7.45s13.61-2.87,18.32-7.45c4.76,4.58,11.48,7.45,18.38,7.45,4.88,0,10.32-1.47,15.2-3.97v28.39h0ZM157.84,80.72l-6.64-19.93c-3.73-11.23-14.23-18.8-26.06-18.79h-50.27c-11.83-.01-22.33,7.56-26.06,18.79l-6.64,19.93c-.1.31-.16.64-.16.97.01,11.77,9.53,21.32,21.31,21.36,7.25,0,14.21-3.55,18.36-8.95,4.11,5.4,11.06,8.95,18.33,8.95s14.23-3.55,18.33-8.95c4.15,5.4,11.11,8.95,18.36,8.95,11.77-.04,21.3-9.59,21.31-21.36,0-.33-.05-.66-.16-.97Z"/>
        <path class="cls-5" d="M118.32,104.77c1.38,1.32,2.92,2.5,4.59,3.52l-19.53,19.53c-8.24-1.76-16.35,3.5-18.11,11.74-.22,1.05-.34,2.12-.34,3.19v3.52l-11.73,11.74h-3.71c-10.62-.01-19.62-7.81-21.15-18.32l34.18-34.18.22.21c4.8,4.15,10.93,6.45,17.28,6.5,6.9,0,13.61-2.87,18.32-7.45h0ZM140.98,47.02c4.79,3.38,8.37,8.2,10.21,13.77l4.8,14.4-26.64,26.66c-3.94-1.31-7.46-3.63-10.21-6.75l-.81-.99c-4.11,5.4-11.06,8.95-18.33,8.95-4.21,0-8.3-1.18-11.8-3.24l52.79-52.8Z"/>
        <path class="cls-2" d="M81.68,104.77l.81.74-34.17,34.18c-.15-1.01-.22-2.03-.22-3.05v-28.39c4.88,2.5,10.32,3.97,15.2,3.97,6.9,0,13.61-2.87,18.38-7.45h0ZM125.14,42c5.82,0,11.33,1.83,15.85,5.02l-52.79,52.8c-2.53-1.46-4.75-3.4-6.53-5.71-4.15,5.4-11.11,8.95-18.36,8.95-5.92,0-11.29-2.44-15.15-6.37l54.68-54.69h22.3Z"/>
        <path class="cls-1" d="M102.84,42l-54.68,54.69c-3.95-4-6.16-9.39-6.16-15.01,0-.34.05-.65.16-.97l6.64-19.93c3.73-11.22,14.24-18.79,26.06-18.78h27.97Z"/>
      </g>
    </g>
  </g>
</svg>