<?xml version="1.0" encoding="utf-8"?>
<!-- Generator: Adobe Illustrator 24.0.1, SVG Export Plug-In . SVG Version: 6.00 Build 0)  -->
<svg version="1.1" id="Glyph" xmlns="http://www.w3.org/2000/svg" xmlns:xlink="http://www.w3.org/1999/xlink" x="0px" y="0px"
	 viewBox="0 0 512 512" style="enable-background:new 0 0 512 512;" xml:space="preserve">
<path id="XMLID_878_" d="M420.7,438.9V220.8L256.2,119.6L91.8,220.8v218.1H0.5v36.5H512v-36.5H420.7z M195.1,311
	c10.2,20.1,15.5,38,18.3,50.8c-56.6-13.2-66.8-48.2-66.8-105.6c45.8,0,86,15.2,109.6,54.8c6.7-49.2,57.1-73.1,109.6-73.1
	c0,44.8-5.1,94.8-67.1,107c2.7-12.8,8-31.4,18.6-52.2c-35.9,3.6-42.8,54.8-42.8,54.8v91.3H238v-73.1C238,365.8,231,314.6,195.1,311
	L195.1,311z"/>
<path d="M37,178.9c0-6.3,3.3-12.2,8.7-15.6L91.8,135V46.1c0-5,4.1-9.1,9.1-9.1h54.8c5,0,9.1,4.1,9.1,9.1V90l81.8-50.3
	c5.9-3.6,13.3-3.6,19.2,0l200.9,123.7c5.4,3.3,8.7,9.2,8.7,15.5c0,14.3-15.7,23.1-27.8,15.6L256.2,76.7L64.9,194.5
	C52.7,202,37,193.2,37,178.9L37,178.9z"/>
</svg>
