<svg id="Layer_2" height="512" viewBox="0 0 53.04 48" width="512" xmlns="http://www.w3.org/2000/svg"><g id="Kurv"><g><path d="m53.04 17.65c0-2.12-1.73-3.85-3.85-3.85h-3.43l-13.5-13.51c-.39-.39-1.02-.39-1.41 0s-.39 1.02 0 1.41l12.09 12.09h-32.83l12.09-12.08c.39-.39.39-1.02 0-1.41s-1.02-.39-1.41 0l-13.51 13.5h-3.43c-2.12 0-3.85 1.73-3.85 3.85 0 1.84 1.3 3.37 3.02 3.75l2.57 22.71c.25 2.22 2.12 3.89 4.35 3.89h33.16c2.23 0 4.1-1.67 4.35-3.89l2.57-22.71c1.72-.38 3.02-1.92 3.02-3.75zm-7.58 26.24c-.14 1.2-1.15 2.11-2.36 2.11h-33.16c-1.21 0-2.23-.91-2.36-2.11l-2.53-22.39h42.95zm3.73-24.39h-45.34c-1.02 0-1.85-.83-1.85-1.85s.83-1.85 1.85-1.85h3.21c.15.09.31.15.48.15s.33-.06.48-.15h36.99c.15.09.31.15.48.15s.33-.06.48-.15h3.21c1.02 0 1.85.83 1.85 1.85s-.83 1.85-1.85 1.85z"/><path d="m26.38 42.69c.55 0 1-.45 1-1v-16.47c0-.55-.45-1-1-1s-1 .45-1 1v16.48c0 .55.45 1 1 1z"/><path d="m16.38 42.69s.08 0 .12 0c.55-.07.94-.56.87-1.11l-2-16.48c-.07-.55-.57-.94-1.11-.87-.55.07-.94.56-.87 1.11l2 16.48c.06.51.49.88.99.88z"/><path d="m36.26 42.69s.08 0 .12 0c.5 0 .93-.37.99-.88l2-16.48c.07-.55-.32-1.05-.87-1.11-.55-.07-1.05.32-1.11.87l-2 16.48c-.07.55.32 1.05.87 1.11z"/></g></g></svg>