<?xml version="1.0" encoding="utf-8"?>
<!-- Generator: Adobe Illustrator 24.0.1, SVG Export Plug-In . SVG Version: 6.00 Build 0)  -->
<svg version="1.1" id="icons" xmlns="http://www.w3.org/2000/svg" xmlns:xlink="http://www.w3.org/1999/xlink" x="0px" y="0px"
	 viewBox="0 0 512 512" style="enable-background:new 0 0 512 512;" xml:space="preserve">
<path d="M67.6,111.8v296.1c0,34.7,28.1,62.8,62.8,62.8h251.2c34.7,0,62.8-28.1,62.8-62.8V111.8c14.9,0,26.9-12.1,26.9-26.9v-9
	c0-14.9-12.1-26.9-26.9-26.9H67.6c-14.9,0-26.9,12.1-26.9,26.9v9C40.6,99.8,52.7,111.8,67.6,111.8z M381.6,452.8H130.4
	c-21.3,0-39.7-15-44-35.9h17c5,0,9-4,9-9c0-5-4-9-9-9H85.5v-35.9h44.9c5,0,9-4,9-9c0-5-4-9-9-9H85.5v-35.9h17.9c5,0,9-4,9-9
	c0-5-4-9-9-9H85.5v-35.9h44.9c5,0,9-4,9-9s-4-9-9-9H85.5v-35.9h341v206.4C426.5,432.7,406.4,452.8,381.6,452.8z M426.5,183.6h-341
	v-35.9h44.9c5,0,9-4,9-9s-4-9-9-9H85.5v-17.9h341V183.6z M58.6,75.9c0-5,4-9,9-9h376.9c5,0,9,4,9,9v9c0,5-4,9-9,9H67.6c-5,0-9-4-9-9
	V75.9z"/>
<path d="M230.4,285.5c0-14.1-11.5-25.6-25.6-25.6c-14.1,0-25.6,11.5-25.6,25.6c0,14.1,11.5,25.6,25.6,25.6
	C218.9,311.1,230.4,299.6,230.4,285.5z M204.8,294c-4.7,0-8.5-3.8-8.5-8.5s3.8-8.5,8.5-8.5c4.7,0,8.5,3.8,8.5,8.5
	S209.5,294,204.8,294z"/>
<path d="M238.9,341.3c-18.9,0-34.1,15.3-34.1,34.1c0,18.9,15.3,34.1,34.1,34.1s34.1-15.3,34.1-34.1
	C273.1,356.6,257.8,341.3,238.9,341.3z M238.9,392.5c-9.4,0-17.1-7.6-17.1-17.1c0-9.4,7.6-17.1,17.1-17.1c9.4,0,17.1,7.6,17.1,17.1
	C256,384.9,248.4,392.5,238.9,392.5z"/>
<path d="M340,285.5c-18.9,0-34.1,15.3-34.1,34.1c0,18.9,15.3,34.1,34.1,34.1s34.1-15.3,34.1-34.1C374.1,300.7,358.9,285.5,340,285.5
	z M340,336.7c-9.4,0-17.1-7.6-17.1-17.1c0-9.4,7.6-17.1,17.1-17.1s17.1,7.6,17.1,17.1C357.1,329,349.4,336.7,340,336.7z"/>
</svg>
