<svg height="512" viewBox="0 0 24 24" width="512" xmlns="http://www.w3.org/2000/svg"><path clip-rule="evenodd" d="m8 8.80704v-5.30704h-.5625c-.41421 0-.75-.33579-.75-.75s.33579-.75.75-.75h9.125c.4142 0 .75.33579.75.75s-.3358.75-.75.75h-.5625v5.30704l5.1251 9.30116c.964 1.7494-.3016 3.8918-2.2991 3.8918h-13.65203c-1.99749 0-3.26307-2.1424-2.29907-3.8918zm6.5-5.30704h-5v5.5c0 .12658-.03203.25109-.09312.36195l-2.28015 4.13805h9.74657l-2.2802-4.13805c-.0611-.11086-.0931-.23537-.0931-.36195zm-10.31134 15.3321 2.11154-3.8321h11.3996l2.1116 3.8321c.4131.7497-.1293 1.6679-.9854 1.6679h-13.65203c-.85606 0-1.39846-.9182-.98531-1.6679z" fill-rule="evenodd"/></svg>
