<svg t="1715047474066" class="icon" viewBox="0 0 1024 1024" version="1.1" xmlns="http://www.w3.org/2000/svg" p-id="13094" width="512" height="512"><path d="M955.904 159.744c0-42.496-34.304-76.8-76.8-76.8l-732.16 0.512c-20.48 0-39.936 8.192-54.272 22.528s-22.528 33.792-22.528 54.272l0.512 701.44c0 20.48 8.192 39.936 22.528 54.272 14.336 14.336 33.792 22.528 54.272 22.528l732.16-0.512c42.496 0 76.8-34.304 76.8-76.8l-0.512-701.44z m-76.288 727.04l-732.16 0.512c-6.656 0-13.312-2.56-17.92-7.68-5.12-5.12-7.68-11.264-7.68-17.92l-0.512-701.44c0-6.656 2.56-13.312 7.68-17.92 4.608-5.12 11.264-7.68 17.92-7.68l732.16-0.512c6.656 0 13.312 2.56 17.92 7.68 5.12 4.608 7.68 11.264 7.68 17.92l0.512 701.44c0 14.336-11.776 25.6-25.6 25.6z"  p-id="13095"></path><path d="M721.408 247.296c-9.728-10.24-26.112-10.752-36.352-1.024l-172.032 162.816-171.52-162.816c-10.24-9.728-26.624-9.216-36.352 1.024-9.728 10.24-9.216 26.624 1.024 36.352l153.6 145.408H331.264c-14.336 0-25.6 11.264-25.6 25.6s11.264 25.6 25.6 25.6h156.16v87.04H331.264c-14.336 0-25.6 11.264-25.6 25.6s11.264 25.6 25.6 25.6h156.16v138.24c0 14.336 11.264 25.6 25.6 25.6s25.6-11.264 25.6-25.6v-138.24h156.16c14.336 0 25.6-11.264 25.6-25.6s-11.264-25.6-25.6-25.6h-156.16v-87.04h156.16c14.336 0 25.6-11.264 25.6-25.6s-11.264-25.6-25.6-25.6h-128.512l153.6-145.408c10.752-9.728 11.264-26.112 1.536-36.352z"  p-id="13096"></path></svg>