<svg id="Layer_1" enable-background="new 0 0 16 16" height="512" viewBox="0 0 16 16" width="512" xmlns="http://www.w3.org/2000/svg"><path d="m2 15c-.5522461 0-1-.4472656-1-1v-6c0-.5527344.4477539-1 1-1s1 .4472656 1 1v6c0 .5527344-.4477539 1-1 1z"/><path d="m6 15c-.5522461 0-1-.4472656-1-1v-12c0-.5527344.4477539-1 1-1s1 .4472656 1 1v12c0 .5527344-.4477539 1-1 1z"/><path d="m10 15c-.5527344 0-1-.4472656-1-1v-4c0-.5527344.4472656-1 1-1s1 .4472656 1 1v4c0 .5527344-.4472656 1-1 1z"/><path d="m14 15c-.5527344 0-1-.4472656-1-1v-8c0-.5527344.4472656-1 1-1s1 .4472656 1 1v8c0 .5527344-.4472656 1-1 1z"/></svg>