<svg id="Layer_1" height="512" viewBox="0 0 64 64" width="512" xmlns="http://www.w3.org/2000/svg" data-name="Layer 1"><path d="m17.45 13.37h7.91a.5.5 0 1 0 0-1h-7.91a.5.5 0 0 0 0 1z"/><path d="m17.45 17.73h4.77a.49.49 0 1 0 0-1h-4.77a.49.49 0 1 0 0 1z"/><path d="m17.45 22.35h7.91a.49.49 0 1 0 0-1h-7.91a.49.49 0 1 0 0 1z"/><path d="m25.36 30.23h-7.91a.49.49 0 1 0 0 1h7.91a.49.49 0 1 0 0-1z"/><path d="m17.45 26.72h4.77a.49.49 0 1 0 0-1h-4.77a.49.49 0 0 0 0 1z"/><path d="m20.75 49.63a3 3 0 1 0 3 3 3 3 0 0 0 -3-3zm0 5a2 2 0 1 1 2-2 2 2 0 0 1 -2 2.02z"/><path d="m28.93 47.45a3 3 0 1 0 -3 3 3 3 0 0 0 3-3zm-5 0a2 2 0 1 1 2 2 2 2 0 0 1 -2.01-2z"/><path d="m27.47 52.28a3 3 0 1 0 3 3 3 3 0 0 0 -3-3zm0 5a2 2 0 1 1 2-2 2 2 0 0 1 -2 2.02z"/><path d="m49 36a5.28 5.28 0 0 0 -2.83.84l-4.73-4.95a6.11 6.11 0 0 0 -.74-7.41c.66-.94 2.59-3.66 3.63-5.11a5 5 0 1 0 -.82-.54c-2 2.85-3 4.27-3.52 5a6.12 6.12 0 0 0 -3-1.26v-14.57a3.92 3.92 0 0 0 2.38-1.13 4 4 0 0 0 -2.85-6.87h-22.83a3.92 3.92 0 0 0 -2.83 1.18 4 4 0 0 0 2.83 6.82h.07v44.4a11.6 11.6 0 1 0 23.2 0v-17.57a6.1 6.1 0 0 0 3.91-2.1l4.52 4.73a5.3 5.3 0 1 0 3.61-1.46zm-6.36-21a4 4 0 1 1 4 4 4 4 0 0 1 -4-4zm-32-11a3 3 0 0 1 .9-2.14 3 3 0 0 1 2.15-.86h22.83a3 3 0 0 1 3 3 3 3 0 0 1 -3 3h-22.83a3 3 0 0 1 -3.03-3zm25.36 4v34c-2.47 1.35-5.18 1.3-8.49-.18a12.29 12.29 0 0 1 -4-3 14.14 14.14 0 0 0 -8.76-4.82v-26zm-3.11 51.9a10.61 10.61 0 0 1 -18.14-7.5v-17.4a13.45 13.45 0 0 1 8 4.46 13.14 13.14 0 0 0 4.34 3.29 12.77 12.77 0 0 0 5.16 1.25 8.51 8.51 0 0 0 3.75-.89v9.29a10.59 10.59 0 0 1 -3.13 7.51zm4.11-26.05v-10.23a5.17 5.17 0 0 1 0 10.23zm12 11.83a4.34 4.34 0 1 1 4.34-4.34 4.34 4.34 0 0 1 -4.34 4.34z"/></svg>