<svg id="Layer_1" enable-background="new 0 0 512 512" height="512" viewBox="0 0 512 512" width="512" xmlns="http://www.w3.org/2000/svg"><path clip-rule="evenodd" d="m75.035 436.965h59.945v59.035c0 4.418 3.582 8 8 8s8-3.582 8-8v-59.035h40.51v59.035c0 4.418 3.582 8 8 8s8-3.582 8-8v-59.035h40.51v59.035c0 4.418 3.582 8 8 8s8-3.582 8-8v-59.035h40.51v59.035c0 4.418 3.582 8 8 8s8-3.582 8-8v-59.035h40.51v59.035c0 4.418 3.582 8 8 8s8-3.582 8-8v-59.035h59.945v-59.945h59.035c4.418 0 8-3.582 8-8s-3.582-8-8-8h-59.035v-40.51h59.035c4.418 0 8-3.582 8-8s-3.582-8-8-8h-59.035v-40.51h59.035c4.418 0 8-3.582 8-8s-3.582-8-8-8h-59.035v-40.51h59.035c4.418 0 8-3.582 8-8s-3.582-8-8-8h-59.035v-40.51h59.035c4.418 0 8-3.582 8-8s-3.582-8-8-8h-59.035v-59.945h-59.945v-59.035c0-4.418-3.582-8-8-8s-8 3.582-8 8v59.035h-40.51v-59.035c0-4.418-3.582-8-8-8s-8 3.582-8 8v59.035h-40.51v-59.035c0-4.418-3.582-8-8-8s-8 3.582-8 8v59.035h-40.51v-59.035c0-4.418-3.582-8-8-8s-8 3.582-8 8v59.035h-40.51v-59.035c0-4.418-3.582-8-8-8s-8 3.582-8 8v59.035h-59.945v59.945h-59.035c-4.418 0-8 3.582-8 8s3.582 8 8 8h59.035v40.51h-59.035c-4.418 0-8 3.582-8 8s3.582 8 8 8h59.035v40.51h-59.035c-4.418 0-8 3.582-8 8s3.582 8 8 8h59.035v40.51h-59.035c-4.418 0-8 3.582-8 8s3.582 8 8 8h59.035v40.51h-59.035c-4.418 0-8 3.582-8 8s3.582 8 8 8h59.035zm237.475-211.767c13.807 0 25-11.193 25-25 0-11.009-7.117-20.356-17-23.692v-27.194l38.881-33.312h36.609v280h-36.05l-39.44-34.164v-26.342c9.884-3.336 17-12.683 17-23.692 0-13.807-11.193-25-25-25s-25 11.193-25 25c0 11.009 7.116 20.356 17 23.692v29.964c0 2.639 1.279 4.98 3.25 6.437l27.828 24.105h-128.098l-.016-58.664c-.003-2.841-1.525-5.591-4.203-7.031l-30.399-16.385v-37.09c9.883-3.336 17-12.683 17-23.692 0-13.807-11.193-25-25-25s-25 11.193-25 25c0 11.009 7.116 20.356 17 23.692v41.847c0 3.237 1.923 6.025 4.689 7.284l29.929 16.132v53.907h-75.49v-280h75.49l.016 58.665c.003 2.841 1.525 5.591 4.203 7.031l30.399 16.385v37.09c-9.884 3.336-17 12.683-17 23.692 0 13.807 11.193 25 25 25s25-11.193 25-25c0-11.009-7.116-20.356-17-23.692v-41.847c0-3.237-1.923-6.025-4.689-7.284l-29.929-16.132v-53.908h127.374l-27.104 23.222c-1.971 1.457-3.25 3.798-3.25 6.437v30.847c-9.884 3.336-17 12.683-17 23.692 0 13.807 11.193 25 25 25z" fill-rule="evenodd"/></svg>