<svg xmlns="http://www.w3.org/2000/svg" viewBox="0 0 95.93 82.67"><path d="M248,236.45s-1.47-.57-4-1.64c-1.26-.59-2.85-1.05-4.62-1.71s-3.83-1.24-6-1.91l-1.7-.51-1.79-.42-3.75-.9c-1.29-.3-2.63-.49-4-.75s-2.74-.54-4.17-.68l-4.33-.56c-1.47-.16-3-.23-4.45-.37l-2.26-.18c-.75,0-1.51,0-2.27-.06l-4.57-.12-4.58.12c-.77,0-1.54,0-2.3.07l-2.24.18c-1.49.13-3,.21-4.43.36l-4.32.57c-1.43.14-2.81.45-4.18.68s-2.7.45-4,.74l-3.74.91-1.79.42-1.7.5c-2.22.67-4.29,1.22-6.06,1.91s-3.37,1.13-4.62,1.71c-2.54,1.07-4,1.64-4,1.64s1.34-.87,3.75-2.33c1.19-.77,2.71-1.49,4.45-2.37l1.35-.68.7-.35.74-.31,3.16-1.3,1.69-.68,1.78-.6,3.77-1.22c1.3-.39,2.65-.69,4-1.05s2.79-.71,4.24-.93l4.42-.77c1.5-.22,3-.34,4.58-.51l2.33-.23c.77-.06,1.53-.07,2.3-.1l4.67-.15,4.69.15c.78,0,1.56,0,2.33.11l2.31.23c1.53.16,3.06.29,4.56.51l4.41.76c1.46.23,2.87.59,4.24.94s2.73.66,4,1.05l3.77,1.21,1.78.6,1.69.69,3.16,1.29.74.32.71.35,1.35.67c1.74.88,3.27,1.61,4.45,2.38C246.66,235.58,248,236.45,248,236.45Z" transform="translate(-152.09 -153.79)"/><polygon points="33.74 44.4 33.74 5.6 25.27 9.03 25.27 40.97 26.07 41.3 33.74 44.4"/><path d="M193.31,201.21v24.07c2.08-.14,4.17-.21,6.28-.23V186.12l2.23-.9,7.16-2.9,1.16-.47.38-.16,3.38-1.36,6.78-2.75,1.32-.52V162.81l-22.32-9-9.83,4v42.06l1.22.49Z" transform="translate(-152.09 -153.79)"/><path d="M210.14,225.52V185.71l-7,2.82v36.55C205.51,225.15,207.83,225.3,210.14,225.52Z" transform="translate(-152.09 -153.79)"/><path d="M240.79,233.18h.08V188.53L222,180.9h0l-8.1,3.28v41.74A105.69,105.69,0,0,1,240.79,233.18Z" transform="translate(-152.09 -153.79)"/><path d="M167.55,230.28V202.15l-3.65,1.47v27.93C165.11,231.1,166.33,230.68,167.55,230.28Z" transform="translate(-152.09 -153.79)"/><path d="M189.73,225.58v-22l-3.9-1.58-8.47-3.43-.54-.21-5.69,2.3v28.47A104.38,104.38,0,0,1,189.73,225.58Z" transform="translate(-152.09 -153.79)"/></svg>
