    <svg xmlns="http://www.w3.org/2000/svg" viewBox="0 0 383.25 383.26">
        <path
            d="M213.1,8.75c7.13,1,14.3,1.76,21.38,3,6.12,1.07,12.2,2.49,18.2,4.1,6.65,1.78,9.46,7.58,6.89,14Q254.52,42.49,249.14,55c-2.41,5.65-6.59,7.69-12.67,6.2a146.05,146.05,0,0,0-70.64,0c-6.24,1.53-10.32-.59-12.84-6.52q-5.18-12.19-10.16-24.47c-2.81-6.91.12-13.07,7.47-14.53,11.93-2.39,24-4.22,36-6.3,1-.17,1.92-.43,2.88-.64Z"
            transform="translate(-9.5 -8.75)"
        />
        <path
            d="M392.75,211.6c-1,7.38-1.74,14.79-3,22.12-1,6-2.42,11.95-4,17.84-1.85,7.06-7.72,9.88-14.48,7.12q-12.27-5-24.47-10.17c-5.93-2.51-8.06-6.58-6.54-12.82a146.34,146.34,0,0,0,0-70.65c-1.53-6.24.6-10.29,6.55-12.81q12.19-5.14,24.46-10.17c6.75-2.75,12.94,0,14.42,7.14,2.45,11.79,4.25,23.72,6.32,35.6.25,1.44.47,2.9.7,4.35Z"
            transform="translate(-9.5 -8.75)"
        />
        <path
            d="M201.15,320.7c-65-.74-119.34-45.3-120.9-120.9C78.89,134.13,134.78,79.27,201.13,79.25S323.38,134,322,199.78C320.47,275.86,265.66,320.06,201.15,320.7ZM215.8,217.59l4.35-4.66c9.35-10,12.93-21.58,8.65-34.77-4.34-13.39-13.6-22-27.57-24.5-5.57-1-11.44-.5-17.17-.51-7.61,0-12.14,4.49-12.15,12q0,35.18,0,70.34c0,7.26,4.37,11.93,11,12s11.29-4.68,11.42-12c0-2.37,0-4.75,0-7.12,6,5,11,10.15,16.15,15.25s12.09,5.31,16.65.68,4.26-11.47-.88-16.64C222.85,224.24,219.28,220.94,215.8,217.59Zm50.63,6.19c1.23-.11,1.84-.18,2.46-.21a35.12,35.12,0,0,0,33.51-33,34.63,34.63,0,0,0-28.73-36.74c-5.82-1-11.91-.65-17.88-.67-6.9,0-11.71,4.46-11.75,11.34q-.21,35.69,0,71.39c0,7.19,4.75,11.73,11.38,11.66s10.88-4.75,11-12C266.48,231.73,266.43,227.89,266.43,223.78ZM134.34,175.57c4.31,0,8.28.11,12.23,0,7-.23,11.8-5.09,11.59-11.56s-4.79-10.78-11.81-10.85q-11.41-.1-22.82,0c-7,.07-11.66,4.42-11.69,11.36q-.15,35.92,0,71.85c0,6.75,4.66,11.16,11.41,11.25s13.72,0,20.58,0c1,0,2,0,3,0,6.65-.22,11.22-4.66,11.34-11s-4.39-11-10.95-11.4c-4.19-.23-8.41,0-12.71,0V211.6c2.23,0,4.21.05,6.18,0,6.78-.21,11.48-4.86,11.44-11.27s-4.69-11-11.55-11.16c-2.05-.06-4.1,0-6.24,0Z"
            transform="translate(-9.5 -8.75)"
        />
        <path
            d="M9.5,200.3a194.29,194.29,0,0,1,6.82-50.59c2.09-7.7,7.78-10.5,15.21-7.46Q43.28,147,55,151.94c6.45,2.7,8.57,6.86,6.89,13.71a144.15,144.15,0,0,0,0,69.57c1.63,6.7-.42,10.82-6.69,13.47q-12,5.1-24.16,10c-7,2.81-12.69-.1-14.67-7.4A194.18,194.18,0,0,1,9.5,200.3Z"
            transform="translate(-9.5 -8.75)"
        />
        <path
            d="M201.13,392a193.43,193.43,0,0,1-51.32-7c-6.8-1.86-9.7-7.68-7.05-14.25q5-12.48,10.3-24.84c2.45-5.75,6.57-7.89,12.57-6.41a146.74,146.74,0,0,0,71.05,0c6-1.47,10.1.68,12.56,6.45q5.2,12.19,10.18,24.48c2.83,7-.06,12.72-7.33,14.71A195,195,0,0,1,201.13,392Z"
            transform="translate(-9.5 -8.75)"
        />
        <path
            d="M67.77,132.49a42.64,42.64,0,0,1-4.39-1.35q-11.77-4.8-23.47-9.72c-7.17-3-9.16-9-5.25-15.78A191.51,191.51,0,0,1,106.26,34c7-4,12.9-2.11,16,5.3q5,11.88,9.86,23.82c2.49,6.15,1.09,10.64-4.56,14.06A144.75,144.75,0,0,0,77.87,127C75.78,130.45,72.93,132.52,67.77,132.49Z"
            transform="translate(-9.5 -8.75)"
        />
        <path
            d="M290.68,31.8a32.05,32.05,0,0,1,4.95,2,192,192,0,0,1,72.14,72.11c3.68,6.4,1.74,12.47-5,15.35-8.24,3.54-16.53,6.95-24.85,10.3-5.73,2.3-10.22.84-13.44-4.49a146.47,146.47,0,0,0-50-50c-5.34-3.23-6.8-7.69-4.48-13.43,3.4-8.44,6.94-16.81,10.43-25.21C282.13,34.26,285.26,32.19,290.68,31.8Z"
            transform="translate(-9.5 -8.75)"
        />
        <path
            d="M133.26,333.71a35.92,35.92,0,0,1-1.24,4.18q-4.78,11.76-9.71,23.47c-3.12,7.43-9,9.44-16,5.43A191.8,191.8,0,0,1,34.7,295.17c-4-6.94-2-12.89,5.47-16q11.55-4.8,23.12-9.57c6.85-2.82,11.15-1.5,14.92,4.7a144,144,0,0,0,49,49C131.64,326,133.34,328.76,133.26,333.71Z"
            transform="translate(-9.5 -8.75)"
        />
        <path
            d="M370,289.13a41.74,41.74,0,0,1-2.32,5.78,192.06,192.06,0,0,1-72.13,72.14c-6.36,3.66-12.43,1.63-15.31-5.09q-5.2-12.21-10.18-24.5c-2.43-6-1-10.43,4.45-13.75A146.31,146.31,0,0,0,324.33,274c3.45-5.68,7.89-7.09,14-4.59,8.3,3.38,16.59,6.8,24.83,10.33A10.88,10.88,0,0,1,370,289.13Z"
            transform="translate(-9.5 -8.75)"
        />
        <path
            d="M194.56,175.81c7.63-.26,13.07,4.79,13.28,12.14.21,7.63-5.22,13-13.28,13Z"
            transform="translate(-9.5 -8.75)"
        />
        <path
            d="M266.63,200.92v-25c7.4-.66,13.06,4.51,13.28,11.93C280.14,195.62,274.82,201,266.63,200.92Z"
            transform="translate(-9.5 -8.75)"
        />
    </svg>
