<?xml version="1.0" encoding="iso-8859-1"?>
<!-- Generator: Adobe Illustrator 24.0.1, SVG Export Plug-In . SVG Version: 6.00 Build 0)  -->
<svg version="1.1" id="Layer_1" xmlns="http://www.w3.org/2000/svg" xmlns:xlink="http://www.w3.org/1999/xlink" x="0px" y="0px"
	 viewBox="0 0 512 512" style="enable-background:new 0 0 512 512;" xml:space="preserve">
<path d="M262.232,471H60.924c-8.539,0-13.688-4.766-16-7.605c-3.988-4.906-5.531-11.289-4.234-17.52
	c20.77-99.766,108.812-172.617,210.453-174.98c1.688,0.062,3.383,0.105,5.09,0.105c74.988,0,136-61.008,136-136s-61.012-136-136-136
	c-74.992,0-136,61.008-136,136c0,44.508,21.492,84.094,54.645,108.918c-30.371,9.996-58.875,25.547-83.816,46.062
	c-45.73,37.617-77.527,90.086-89.531,147.742c-3.762,18.066,0.746,36.621,12.363,50.91C25.451,502.848,42.596,511,60.924,511
	h201.309c11.043,0,20-8.953,20-20S273.275,471,262.232,471z M160.232,135c0-52.934,43.062-96,96-96c52.934,0,96,43.066,96,96
	c0,52.176-41.84,94.762-93.73,95.973c-0.746-0.086-1.5-0.141-2.27-0.141c-1.562,0-3.121,0.023-4.68,0.051
	C200.783,228.438,160.232,186.367,160.232,135z"/>
<path d="M499.314,366.493c2.978,0.075,5.844-1.056,7.955-3.129c2.149-2.074,3.356-4.864,3.431-7.842
	c-0.113-6.183-5.203-11.084-11.386-10.971h-63.264l38.004-43.622c1.961-2.187,2.903-5.09,2.639-8.031
	c-0.264-2.903-1.734-5.618-4.072-7.39c-4.864-3.883-11.952-3.28-16.061,1.395l-50.219,57.685h4.675l-50.257-57.647
	c-4.147-4.675-11.198-5.278-16.061-1.395c-2.3,1.81-3.77,4.487-4.034,7.427c-0.264,2.903,0.679,5.806,2.601,8.031l37.966,43.622
	h-63.227c-2.978-0.075-5.844,1.056-7.993,3.129c-2.149,2.074-3.355,4.864-3.431,7.842c0,6.07,5.09,10.971,11.424,10.971h78.232
	v51.954h-78.232c-2.978-0.075-5.844,1.056-7.993,3.129c-2.149,2.074-3.355,4.901-3.431,7.88c0,6.032,5.09,10.971,11.424,10.971
	h78.232v59.494c0,6.07,5.052,11.009,11.424,11.009c6.183,0.113,11.311-4.826,11.424-11.009V440.39h80.193
	c2.978,0.075,5.844-1.056,7.993-3.129c2.149-2.074,3.355-4.901,3.431-7.88c-0.151-6.183-5.241-11.085-11.424-10.971h-80.193v-51.916
	H499.314z"/>
</svg>
