<svg height="512" viewBox="0 0 24 24" width="512" xmlns="http://www.w3.org/2000/svg"><path clip-rule="evenodd" d="m4 5c0-.26522.10536-.51957.29289-.70711.18754-.18753.44189-.29289.70711-.29289 8.284 0 15 6.716 15 15 0 .2652-.1054.5196-.2929.7071s-.4419.2929-.7071.2929-.5196-.1054-.7071-.2929-.2929-.4419-.2929-.7071c0-7.18-5.82-13-13-13-.26522 0-.51957-.10536-.70711-.29289-.18753-.18754-.29289-.44189-.29289-.70711zm0 5c0-.26522.10536-.51957.29289-.70711.18754-.18753.44189-.29289.70711-.29289 5.523 0 10 4.477 10 10 0 .2652-.1054.5196-.2929.7071s-.4419.2929-.7071.2929-.5196-.1054-.7071-.2929-.2929-.4419-.2929-.7071c0-2.1217-.8429-4.1566-2.3431-5.6569-1.50034-1.5002-3.53517-2.3431-5.6569-2.3431-.26522 0-.51957-.1054-.70711-.2929-.18753-.1875-.29289-.4419-.29289-.7071zm2.5 10c.66304 0 1.29893-.2634 1.76777-.7322.46884-.4689.73223-1.1048.73223-1.7678s-.26339-1.2989-.73223-1.7678c-.46884-.4688-1.10473-.7322-1.76777-.7322s-1.29893.2634-1.76777.7322c-.46884.4689-.73223 1.1048-.73223 1.7678s.26339 1.2989.73223 1.7678c.46884.4688 1.10473.7322 1.76777.7322z" /></svg>
