<?xml version="1.0" encoding="utf-8"?>
<!-- Generator: Adobe Illustrator 24.0.1, SVG Export Plug-In . SVG Version: 6.00 Build 0)  -->
<svg version="1.1" id="_图层_1" xmlns="http://www.w3.org/2000/svg" xmlns:xlink="http://www.w3.org/1999/xlink" x="0px" y="0px"
	 viewBox="0 0 200 200" style="enable-background:new 0 0 200 200;" xml:space="preserve">
<path d="M100,7C48.8,7,7,48.8,7,100s41.8,93,93,93s93-41.8,93-93S151.2,7,100,7z M140.2,55.9c0,0,0.1,0,0.2-0.1c0,0,0.1,0,0.2-0.1
	c0.1,0,0.3-0.2,0.4-0.3c0.3-0.2,0.5-0.3,0.7-0.4c8.3-4.4,18.7-1.7,23.7,6.4c2.6,4.1,3.4,8.9,2.3,13.7c-0.9,4.3-3.3,7.9-6.8,10.5
	c-0.2,0.2-0.4,0.4-0.7,0.5c-0.1,0-0.3,0.2-0.4,0.2c0,0-0.1,0-0.2,0.1c0,0,0,0-0.1,0c-8.8,5.4-18.8,9.1-26.7,9.1s-10-1.8-12.6-5.8
	C114.1,79.8,125.6,65.3,140.2,55.9L140.2,55.9z M80.7,44.5c0-0.3,0-0.6,0-0.8c0.7-9.3,8.6-16.6,18-16.6s17.3,7.3,18,16.6
	c0,0.3,0,0.6,0,0.8s0,0.3,0,0.5c0,0,0,0.1,0,0.2s0,0.1,0,0.2c-0.2,17.5-6.4,34.9-18.1,34.9S80.7,62.8,80.5,45.3c0,0,0-0.1,0-0.2
	s0-0.1,0-0.2c0-0.2,0-0.3,0-0.5L80.7,44.5z M77.6,127c-3.4,5.7-9.1,11.5-15.8,16.6c0,0,0,0-0.1,0.1c0,0,0,0-0.1,0
	c-0.2,0.1-0.3,0.2-0.4,0.3c-0.2,0.1-0.4,0.2-0.6,0.3c-2.9,1.9-6.2,2.8-9.6,2.8s-1.9,0-2.8-0.2c-4.7-0.7-9-3.3-11.8-7.3
	c-5.6-7.6-4.3-18.3,2.8-24.5c0.2-0.2,0.4-0.4,0.7-0.6c0.1,0,0.3-0.2,0.4-0.3c0,0,0.1,0,0.2-0.1c0,0,0.1,0,0.2-0.1
	c14.2-10.1,32-15.4,38.9-6c2,2.7,4.4,8.7-1.7,18.6L77.6,127z M80.4,88.7c-1.3,2.9-5.1,7.6-15.5,7.6s-1,0-1.6,0
	C56.6,96,48.8,94,41,90.4c0,0,0,0-0.1,0c0,0,0,0-0.1,0c-0.2,0-0.4-0.2-0.5-0.2c-0.3-0.1-0.6-0.3-0.7-0.5c-3.7-2.1-6.5-5.4-8-9.5
	c-1.7-4.6-1.5-9.5,0.6-13.9s5.7-7.7,10.2-9.4c4.1-1.5,8.5-1.5,12.6,0c0.3,0,0.5,0.2,0.7,0.3c0.1,0,0.3,0.1,0.4,0.2c0,0,0.1,0,0.2,0
	c0,0,0.1,0,0.2,0C72.3,65,85.5,78,80.6,88.7H80.4z M118.9,154.3c0,0.3,0,0.6,0,0.8c-0.7,9.3-8.6,16.6-18,16.6s-17.3-7.3-18-16.6
	c0-0.3,0-0.6,0-0.8s0-0.3,0-0.5c0,0,0-0.1,0-0.2s0-0.1,0-0.2c0.2-17.5,6.4-34.9,18.1-34.9s17.9,17.4,18.1,34.9c0,0,0,0.1,0,0.2
	s0,0.1,0,0.2c0,0.2,0,0.3,0,0.5H118.9z M151.4,147.2c-2,0-4.2-0.4-6.2-1.1c-0.3,0-0.6-0.2-0.7-0.3c-0.2,0-0.3-0.1-0.5-0.2
	c0,0-0.1,0-0.2,0c0,0-0.1,0-0.2,0c-15.8-7.5-29-20.5-24.1-31.2c4.9-10.6,23.3-8.9,39.3-1.8c0,0,0.1,0,0.2,0c0,0,0.1,0,0.2,0
	c0.2,0,0.3,0.1,0.5,0.2c0.3,0.1,0.5,0.3,0.7,0.4c8.1,4.6,11.5,14.8,7.5,23.3C164.9,143.2,158.3,147.2,151.4,147.2L151.4,147.2z"/>
<path d="M98.8,68.8c2-0.8,6.6-8.9,6.7-23.7c0-3.6-3.1-6.6-6.7-6.6c-3.6,0-6.6,3-6.7,6.6C92.2,59.8,96.8,67.9,98.8,68.8z"/>
<path d="M100.7,130c-2,0.8-6.6,8.9-6.7,23.7c0,3.6,3.1,6.6,6.7,6.6s6.6-3,6.7-6.6C107.3,139,102.7,130.9,100.7,130z"/>
<path d="M154.4,123.1c-13.5-6.1-22.8-5.3-24.4-3.9c0,2,5.4,9.7,18.7,16c3.3,1.5,7.3,0,8.7-3.3C159,128.6,157.6,124.6,154.4,123.1
	L154.4,123.1z"/>
<path d="M51.3,67.8c-3.3-1.5-7.3,0-8.7,3.3c-0.7,1.6-0.8,3.4-0.2,5.1c0.6,1.7,1.8,3,3.3,3.7c13.5,6.1,22.8,5.3,24.4,3.9
	C70.1,81.8,64.7,74.1,51.3,67.8L51.3,67.8z"/>
<path d="M153.7,76.8c1.5-0.9,2.5-2.4,2.9-4.1c0.4-1.8,0-3.5-0.8-5c-2-3.1-6-4-9.1-2.1c-12.5,8-16.8,16.3-16.6,18.3
	C131.8,85,141.1,84.6,153.7,76.8L153.7,76.8z"/>
<path d="M46.9,123.8c-1.4,1-2.3,2.6-2.6,4.3c-0.3,1.8,0.2,3.5,1.2,4.9s2.6,2.4,4.4,2.7c1.8,0.3,3.4-0.2,4.8-1.1
	c11.9-8.8,15.7-17.4,15.3-19.4C68.2,114.1,58.9,115.2,46.9,123.8z"/>
</svg>
