<?xml version="1.0" encoding="UTF-8"?>
<svg id="_图层_1" data-name="图层 1" xmlns="http://www.w3.org/2000/svg" version="1.1" viewBox="0 0 200 200">
  <path d="M100,0C44.9,0,0,44.9,0,100s44.9,100,100,100,100-44.9,100-100S155.1,0,100,0ZM143.2,52.6c0,0,.1,0,.2-.1,0,0,.1,0,.2-.1.1,0,.3-.2.4-.3.3-.2.5-.3.8-.4,8.9-4.7,20.1-1.8,25.5,6.9,2.8,4.4,3.7,9.6,2.5,14.7-1,4.6-3.6,8.5-7.3,11.3-.2.2-.4.4-.7.5-.1,0-.3.2-.4.2,0,0-.1,0-.2.1,0,0,0,0-.1,0-9.5,5.8-20.2,9.8-28.7,9.8s-10.7-1.9-13.5-6.2c-6.7-10.7,5.6-26.3,21.4-36.5ZM79.2,40.3c0-.3,0-.6,0-.9.8-10,9.2-17.9,19.4-17.9s18.6,7.9,19.4,17.9c0,.3,0,.6,0,.9s0,.3,0,.5c0,0,0,.1,0,.2s0,.1,0,.2c-.2,18.8-6.9,37.5-19.5,37.5s-19.3-18.7-19.5-37.5c0,0,0-.1,0-.2s0-.1,0-.2c0-.2,0-.3,0-.5ZM75.9,129c-3.7,6.1-9.8,12.4-17,17.9,0,0,0,0-.1.1,0,0,0,0-.1,0-.2.1-.3.2-.4.3-.2.1-.4.2-.6.3-3.1,2-6.7,3-10.3,3s-2,0-3-.2c-5.1-.8-9.7-3.5-12.7-7.8-6-8.2-4.6-19.7,3-26.3.2-.2.4-.4.7-.6.1,0,.3-.2.4-.3,0,0,.1,0,.2-.1,0,0,.1,0,.2-.1,15.3-10.9,34.4-16.6,41.8-6.4,2.1,2.9,4.7,9.4-1.8,20ZM78.9,87.8c-1.4,3.1-5.5,8.2-16.7,8.2s-1.1,0-1.7,0c-7.2-.3-15.6-2.5-23.9-6.3,0,0,0,0-.1,0,0,0,0,0-.1,0-.2,0-.4-.2-.5-.2-.3-.1-.6-.3-.8-.5-4-2.3-7-5.8-8.6-10.2-1.8-4.9-1.6-10.2.6-14.9,2.2-4.7,6.1-8.3,11-10.1,4.4-1.6,9.1-1.6,13.5,0,.3,0,.5.2.8.3.1,0,.3.1.4.2,0,0,.1,0,.2,0,0,0,.1,0,.2,0,17,8.1,31.2,22,25.9,33.5ZM120.3,158.4c0,.3,0,.6,0,.9-.8,10-9.2,17.9-19.4,17.9s-18.6-7.9-19.4-17.9c0-.3,0-.6,0-.9s0-.3,0-.5c0,0,0-.1,0-.2s0-.1,0-.2c.2-18.8,6.9-37.5,19.5-37.5s19.3,18.7,19.5,37.5c0,0,0,.1,0,.2s0,.1,0,.2c0,.2,0,.3,0,.5ZM155.3,150.8c-2.2,0-4.5-.4-6.7-1.2-.3,0-.6-.2-.8-.3-.2,0-.3-.1-.5-.2,0,0-.1,0-.2,0,0,0-.1,0-.2,0-17-8.1-31.2-22-25.9-33.5,5.3-11.4,25.1-9.6,42.3-1.9,0,0,.1,0,.2,0,0,0,.1,0,.2,0,.2,0,.3.1.5.2.3.1.5.3.8.4,8.7,4.9,12.4,15.9,8.1,25.1-3.3,7.1-10.4,11.3-17.7,11.3Z"/>
  <path d="M98.7,66.4c2.1-.9,7.1-9.6,7.2-25.5,0-3.9-3.3-7.1-7.2-7.1s-7.1,3.2-7.2,7.1c.1,15.9,5.1,24.6,7.2,25.5Z"/>
  <path d="M100.8,132.3c-2.1.9-7.1,9.6-7.2,25.5,0,3.9,3.3,7.1,7.2,7.1s7.1-3.2,7.2-7.1c-.1-15.9-5.1-24.6-7.2-25.5Z"/>
  <path d="M158.5,124.8c-14.5-6.6-24.5-5.7-26.2-4.2,0,2.2,5.8,10.4,20.1,17.2,3.6,1.6,7.8,0,9.4-3.5,1.6-3.6.1-7.8-3.4-9.5Z"/>
  <path d="M47.6,65.4c-3.6-1.6-7.8,0-9.4,3.5-.8,1.7-.9,3.7-.2,5.5.6,1.8,1.9,3.2,3.6,4,14.5,6.6,24.5,5.7,26.2,4.2,0-2.2-5.8-10.4-20.1-17.2Z"/>
  <path d="M157.7,75c1.6-1,2.7-2.6,3.1-4.4.4-1.9,0-3.8-.9-5.4-2.1-3.3-6.5-4.3-9.8-2.3-13.4,8.6-18.1,17.5-17.8,19.7,1.9,1.3,11.9.8,25.4-7.5Z"/>
  <path d="M42.9,125.6c-1.5,1.1-2.5,2.8-2.8,4.6-.3,1.9.2,3.8,1.3,5.3,1.1,1.5,2.8,2.6,4.7,2.9,1.9.3,3.7-.2,5.2-1.2,12.8-9.5,16.9-18.7,16.4-20.9-1.9-1.1-11.9,0-24.8,9.3Z"/>
</svg>
