<?xml version="1.0" encoding="iso-8859-1"?>
<!-- Generator: Adobe Illustrator 19.0.0, SVG Export Plug-In . SVG Version: 6.00 Build 0)  -->
<svg version="1.1" id="Layer_1" xmlns="http://www.w3.org/2000/svg" xmlns:xlink="http://www.w3.org/1999/xlink" x="0px" y="0px"
	 viewBox="0 0 512 512" style="enable-background:new 0 0 512 512;" xml:space="preserve">
<g>
	<g>
		<path d="M467.002,92.16H466.3c-24.81,0-44.997,20.186-44.997,44.997v32.853h-49.737v-32.853c0-24.811-20.186-44.997-44.998-44.997
			h-0.702c-24.811,0-44.997,20.186-44.997,44.997v32.853h-49.738v-32.853c0-24.811-20.186-44.997-44.997-44.997h-0.702
			c-24.812,0-44.998,20.186-44.998,44.997v32.853H90.697v-32.853c0-24.81-20.186-44.997-44.997-44.997h-0.703
			C20.186,92.16,0,112.346,0,137.157V409.6c0,5.655,4.585,10.24,10.24,10.24h70.217c5.655,0,10.24-4.585,10.24-10.24v-25.061h49.737
			V409.6c0,5.655,4.585,10.24,10.24,10.24h70.217c5.655,0,10.24-4.585,10.24-10.24v-25.061h49.738V409.6
			c0,5.655,4.585,10.24,10.24,10.24h70.217c5.655,0,10.24-4.585,10.24-10.24v-25.061h49.737V409.6c0,5.655,4.585,10.24,10.24,10.24
			h70.219c5.655,0,10.24-4.585,10.24-10.24V137.157C512,112.346,491.814,92.16,467.002,92.16z M70.217,399.36H20.48V137.157
			c0-13.519,10.998-24.517,24.517-24.517H45.7c13.519,0,24.517,10.998,24.517,24.517V399.36z M140.433,364.059H90.697v-25.6h49.737
			V364.059z M140.433,317.979H90.697V236.57h49.737V317.979z M140.434,216.09H90.697v-25.6h49.738V216.09z M210.651,399.36h-49.737
			V137.157c0-13.519,10.999-24.517,24.518-24.517h0.702c13.519,0,24.517,10.998,24.517,24.517V399.36z M280.869,364.059h-49.738
			v-25.6h49.738V364.059z M280.869,317.979h-49.738V236.57h49.738V317.979z M280.869,216.09h-49.738v-25.6h49.738V216.09z
			 M351.086,399.36h-49.737V137.157c0-13.519,10.998-24.517,24.517-24.517h0.702c13.519,0,24.518,10.998,24.518,24.517V399.36z
			 M421.302,364.059h-49.737v-25.6h49.737V364.059z M421.302,317.979h-49.737V236.57h49.737V317.979z M421.303,216.09h-49.737v-25.6
			h49.737V216.09z M491.52,399.36h-49.737V137.157c0-13.519,10.998-24.517,24.517-24.517h0.702
			c13.519,0,24.518,10.998,24.518,24.517V399.36z"/>
	</g>
</g>
<g>
</g>
<g>
</g>
<g>
</g>
<g>
</g>
<g>
</g>
<g>
</g>
<g>
</g>
<g>
</g>
<g>
</g>
<g>
</g>
<g>
</g>
<g>
</g>
<g>
</g>
<g>
</g>
<g>
</g>
</svg>
