<?xml version="1.0" encoding="iso-8859-1"?>
<!-- Generator: Adobe Illustrator 19.0.0, SVG Export Plug-In . SVG Version: 6.00 Build 0)  -->
<svg version="1.1" id="Capa_1" xmlns="http://www.w3.org/2000/svg" xmlns:xlink="http://www.w3.org/1999/xlink" x="0px" y="0px"
	 viewBox="0 0 412.65 412.65" style="enable-background:new 0 0 412.65 412.65;" xml:space="preserve">
<g>
	<g>
		<path d="M309.085,335.445c-86.8-9.2-130-110.96-130.4-112c-1.679-4.087-6.353-6.039-10.44-4.36
			c-4.087,1.679-6.039,6.353-4.36,10.44c14.713,33.583,36.775,63.437,64.56,87.36c-39.04,0-68.32-10.72-86.96-32.4
			c-32-37.6-25.04-98.24-21.6-117.76c143.36,4.4,147.92,132.16,148,137.68c0,4.418,3.582,8,8,8s8-3.582,8-8
			c0-1.52-4.88-152.72-170.56-153.44c-3.766-0.11-7.097,2.423-8,6.08c-0.88,3.52-20.32,86.72,24,138.08
			c21.76,25.36,54.88,38.16,98.64,38.16c6.987,0,14.24-0.32,21.76-0.96c17.621,10.526,37.339,17.053,57.76,19.12h0.8
			c4.418,0.221,8.179-3.182,8.4-7.6C316.906,339.427,313.503,335.666,309.085,335.445z"/>
	</g>
</g>
<g>
	<g>
		<path d="M409.805,175.445l-198.4-165.92l-0.8-0.4l-1.44-0.8l-1.44-0.4h-1.52h-1.52l-1.44,0.4l-1.44,0.8l-0.8,0.4L2.845,175.845
			c-3.38,2.85-3.81,7.9-0.96,11.28s7.9,3.81,11.28,0.96l25.52-21.84v230.48c0,4.418,3.582,8,8,8h319.2c4.418,0,8-3.582,8-8v-230.48
			l25.6,21.44c3.38,2.85,8.43,2.42,11.28-0.96C413.615,183.345,413.185,178.295,409.805,175.445z M357.805,388.645H54.685v-235.44
			l151.6-127.12l151.6,127.12L357.805,388.645z"/>
	</g>
</g>
<g>
</g>
<g>
</g>
<g>
</g>
<g>
</g>
<g>
</g>
<g>
</g>
<g>
</g>
<g>
</g>
<g>
</g>
<g>
</g>
<g>
</g>
<g>
</g>
<g>
</g>
<g>
</g>
<g>
</g>
</svg>
