<?xml version="1.0" encoding="utf-8"?>
<!-- Generator: Adobe Illustrator 24.0.1, SVG Export Plug-In . SVG Version: 6.00 Build 0)  -->
<svg version="1.1" id="_x3C_Layer_x3E_" xmlns="http://www.w3.org/2000/svg" xmlns:xlink="http://www.w3.org/1999/xlink" x="0px"
	 y="0px" viewBox="0 0 512 512" style="enable-background:new 0 0 512 512;" xml:space="preserve">
<g id="Blockchain_x2C__blocks_x2C__structure_x2C__Nodes_1_">
	<g id="XMLID_266_">
		<g id="XMLID_105_">
			<g id="XMLID_76_">
				<g id="XMLID_5214_">
					<path d="M258,512c-1.4,0-3.1-0.3-4.3-1l-36-18.9c-2.9-1.5-4.7-4.4-4.7-7.5v-41.8c0-3.1,1.8-6,4.7-7.5l36-18.9
						c2.7-1.4,5.9-1.4,8.8,0l36,18.9c2.9,1.5,4.7,4.4,4.7,7.5v41.8c0,3.1-1.8,6-4.7,7.5l-36,18.9C261.1,511.7,259.4,512,258,512z
						 M231,479.6l27,14.2l27-14.2v-31.7l-27-14.3l-27,14.2V479.6z"/>
				</g>
			</g>
			<g id="XMLID_75_">
				<g id="XMLID_5211_">
					<path d="M447,411c-1.4,0-3.1-0.3-4.3-1l-36-18.9c-2.9-1.5-4.7-4.4-4.7-7.5v-41.6c0-3.1,1.8-6,4.7-7.5l36-18.9
						c2.7-1.4,5.9-1.4,8.8,0l36,18.9c2.7,1.5,4.5,4.4,4.5,7.5v41.6c0,3.1-1.8,6-4.7,7.5l-36,18.9C450.1,410.6,448.4,411,447,411z
						 M420,378.5l27,14.2l27-14.2V347l-27-14.2l-27,14V378.5z"/>
				</g>
			</g>
			<g id="XMLID_74_">
				<g id="XMLID_5208_">
					<path d="M69,411c-1.4,0-3.1-0.3-4.3-1l-36-18.9c-2.9-1.5-4.7-4.4-4.7-7.5v-41.6c0-3.1,1.8-6,4.7-7.5l36-18.9
						c2.7-1.4,5.9-1.4,8.8,0l36,18.9c2.7,1.5,4.5,4.4,4.5,7.5v41.6c0,3.1-1.8,6-4.7,7.5l-36,18.9C72.1,410.6,70.4,411,69,411z
						 M42,378.5l27,14.2l27-14.2V347l-27-14.2l-27,14V378.5z"/>
				</g>
			</g>
			<g id="XMLID_65_">
				<g id="XMLID_5205_">
					<path d="M258,96.8c-1.4,0-3.1-0.3-4.3-1l-36-18.9c-2.9-1.5-4.7-4.4-4.7-7.5V27.5c0-3.1,1.8-6,4.7-7.5l36-18.9
						c2.7-1.4,5.9-1.4,8.8,0l36,18.9c2.9,1.5,4.7,4.4,4.7,7.5v41.8c0,3.1-1.8,6-4.7,7.5l-36,18.9C261.1,96.4,259.4,96.8,258,96.8z
						 M231,64.3l27,14.2l27-14.2V32.4l-27-14.2l-27,14.2V64.3z"/>
				</g>
			</g>
			<g id="XMLID_7_">
				<g id="XMLID_5202_">
					<path d="M447,189.1c-1.4,0-3.1-0.3-4.3-1l-36-18.9c-2.9-1.5-4.7-4.4-4.7-7.5V120c0-3.1,1.8-6,4.7-7.5l36-18.9
						c2.7-1.4,5.9-1.4,8.8,0l36,18.9c2.7,1.5,4.5,4.4,4.5,7.5v41.6c0,3.1-1.8,6-4.7,7.5l-36,18.9C450.1,188.8,448.4,189.1,447,189.1
						L447,189.1z M420,156.7l27,14.2l27-14.2v-31.7l-27-14.2l-27,14.2V156.7z"/>
				</g>
			</g>
			<g id="XMLID_8_">
				<g id="XMLID_5199_">
					<path d="M69,189.1c-1.4,0-3.1-0.3-4.3-1l-36-18.9c-2.9-1.5-4.7-4.4-4.7-7.5V120c0-3.1,1.8-6,4.7-7.5l36-18.9
						c2.7-1.4,5.9-1.4,8.8,0l36,18.9c2.7,1.5,4.5,4.4,4.5,7.5v41.6c0,3.1-1.8,6-4.7,7.5l-36,18.9C72.1,188.8,70.4,189.1,69,189.1
						L69,189.1z M42,156.7l27,14.2l27-14.2v-31.7l-27-14.2l-27,14.2V156.7z"/>
				</g>
			</g>
		</g>
		<g id="XMLID_567_">
			<g id="XMLID_5198_">
				<path d="M447,331.4c-5,0-9-3.8-9-8.5V180.6c0-4.8,4-8.5,9-8.5s9,3.8,9,8.5v142.3C456,327.7,452,331.4,447,331.4z"/>
			</g>
		</g>
		<g id="XMLID_515_">
			<g id="XMLID_5197_">
				<path d="M294,454.7c-3.2,0-6.3-1.5-7.9-4.4c-2.3-4.1-0.9-9.4,3.4-11.6l117.9-62.1c4.3-2.2,9.9-0.9,12.2,3.2
					c2.3,4.1,0.9,9.4-3.4,11.6l-117.9,62.1C297.1,454.3,295.4,454.7,294,454.7L294,454.7z"/>
			</g>
		</g>
		<g id="XMLID_506_">
			<g id="XMLID_5196_">
				<path d="M222,454.7c-1.4,0-3.1-0.3-4.3-1L99.8,391.5c-4.3-2.2-5.9-7.5-3.4-11.6c2.3-4.1,7.9-5.6,12.2-3.2l117.9,62.1
					c4.3,2.2,5.9,7.5,3.4,11.6C228.3,453.1,225.2,454.7,222,454.7z"/>
			</g>
		</g>
		<g id="XMLID_407_">
			<g id="XMLID_5195_">
				<path d="M69,331.4c-5,0-9-3.8-9-8.5V180.6c0-4.8,4-8.5,9-8.5c5,0,9,3.8,9,8.5v142.3C78,327.7,74,331.4,69,331.4z"/>
			</g>
		</g>
		<g id="XMLID_287_">
			<g id="XMLID_5194_">
				<path d="M105,136c-3.2,0-6.3-1.5-7.9-4.4c-2.3-4.1-0.7-9.2,3.6-11.4l117-61.6c4.3-2.4,9.7-0.9,12.2,3.2
					c2.3,4.1,0.9,9.4-3.4,11.6l-117,61.6C108.1,135.7,106.4,136,105,136L105,136z"/>
			</g>
		</g>
		<g id="XMLID_116_">
			<g id="XMLID_5193_">
				<path d="M411,136c-1.4,0-3.1-0.3-4.3-1l-117-61.6c-4.3-2.2-5.9-7.5-3.4-11.6c2.3-4.1,7.7-5.6,12.1-3.4l117,61.6
					c4.3,2.2,5.9,7.5,3.4,11.6C417.3,134.5,414.2,136,411,136L411,136z"/>
			</g>
		</g>
		<g id="XMLID_1505_">
			<g id="XMLID_5192_">
				<path d="M339,209.9c-1.4,0-3.1-0.3-4.3-1L258,168.4l-76.7,40.4c-4.3,2.2-9.9,0.9-12.2-3.2s-0.9-9.4,3.4-11.6l81-42.7
					c2.7-1.4,5.9-1.4,8.8,0l81,42.7c4.3,2.2,5.9,7.5,3.4,11.6C345.3,208.4,342.2,209.9,339,209.9z"/>
			</g>
		</g>
		<g id="XMLID_1503_">
			<g id="XMLID_5191_">
				<path d="M258,346.5c-3.2,0-6.3-1.5-7.9-4.4c-2.3-4.1-0.9-9.4,3.4-11.6l76.5-40.1v-74.4l-67.7,35.7c-4.3,2.2-9.9,0.9-12.2-3.2
					c-2.3-4.1-0.9-9.4,3.4-11.6l81-42.7c2.7-1.5,6.1-1.4,9,0.2c2.9,1.5,4.5,4.1,4.5,7.2v93.9c0,3.1-1.8,6-4.7,7.5l-81,42.7
					C261.1,346.1,259.4,346.5,258,346.5z"/>
			</g>
		</g>
		<g id="XMLID_1502_">
			<g id="XMLID_5188_">
				<path d="M258,346.5c-1.4,0-3.1-0.3-4.3-1l-81-42.7c-2.9-1.5-4.7-4.4-4.7-7.5v-93.9c0-3.1,1.6-5.8,4.5-7.3c2.7-1.5,6.1-1.5,9-0.2
					l81,42.7c2.9,1.5,4.7,4.4,4.7,7.5v93.9c0,3.1-1.6,5.8-4.5,7.3C261.2,346.1,259.6,346.5,258,346.5z M186,290.3l63,33.1V249
					l-63-33.1V290.3z"/>
			</g>
		</g>
		<g id="XMLID_1495_">
			<g id="XMLID_5187_">
				<path d="M258,429.6c-5,0-9-3.8-9-8.5v-54.1c0-4.8,4-8.5,9-8.5c5,0,9,3.8,9,8.5V421C267,425.6,263,429.6,258,429.6z"/>
			</g>
		</g>
		<g id="XMLID_1467_">
			<g id="XMLID_5186_">
				<path d="M366,196.8c-3.1,0-5.9-1.4-7.6-3.9c-2.7-3.9-1.4-9.2,2.9-11.8l44.3-26.5c4.1-2.6,9.7-1.4,12.4,2.7
					c2.7,3.9,1.4,9.2-2.9,11.8l-44.3,26.5C369.2,196.3,367.6,196.8,366,196.8z"/>
			</g>
		</g>
		<g id="XMLID_1437_">
			<g id="XMLID_5185_">
				<path d="M149.3,196.8c-1.6,0-3.2-0.5-4.9-1.4L100.1,169c-4.1-2.6-5.4-7.9-2.9-11.8c2.7-3.9,8.3-5.1,12.4-2.7l44.3,26.5
					c4.1,2.6,5.4,7.9,2.9,11.8C155.2,195.4,152.3,196.8,149.3,196.8L149.3,196.8z"/>
			</g>
		</g>
		<g id="XMLID_1492_">
			<g id="XMLID_5184_">
				<path d="M410.3,350.4c-1.6,0-3.2-0.5-4.9-1.4l-44.3-26.5c-4.1-2.6-5.4-7.9-2.9-11.8c2.7-3.9,8.3-5.1,12.4-2.7l44.3,26.5
					c4.1,2.6,5.4,7.9,2.9,11.8C416.2,349,413.3,350.4,410.3,350.4L410.3,350.4z"/>
			</g>
		</g>
		<g id="XMLID_1434_">
			<g id="XMLID_5183_">
				<path d="M105,350.4c-3.1,0-5.9-1.4-7.6-3.9c-2.7-4.1-1.4-9.4,2.7-11.9l44.3-26.5c4.1-2.6,9.7-1.4,12.4,2.7
					c2.7,3.9,1.4,9.2-2.9,11.8L109.7,349C108.2,349.9,106.6,350.4,105,350.4z"/>
			</g>
		</g>
		<g id="XMLID_1490_">
			<g id="XMLID_5182_">
				<path d="M258,136.5c-5,0-9-3.8-9-8.5V93.9c0-4.8,4-8.5,9-8.5c5,0,9,3.8,9,8.5V128C267,132.8,263,136.5,258,136.5z"/>
			</g>
		</g>
	</g>
</g>
</svg>
