<?xml version="1.0" encoding="utf-8"?>
<!-- Generator: Adobe Illustrator 24.0.1, SVG Export Plug-In . SVG Version: 6.00 Build 0)  -->
<svg version="1.1" id="Layer_1" xmlns="http://www.w3.org/2000/svg" xmlns:xlink="http://www.w3.org/1999/xlink" x="0px" y="0px"
	 viewBox="0 0 512 512" style="enable-background:new 0 0 512 512;" xml:space="preserve">
<style type="text/css">
	.st0{stroke:#000000;stroke-width:9;stroke-miterlimit:10;}
</style>
<path class="st0" d="M422,270.5c2.2-67.5-27.2-118.5-69.9-121.2c-25.8-1.6-53.3,10.1-73.5,18.8c-5.7,2.4-11.4,4.9-15.9,6.5
	c0.5-35.2,15.2-67.1,43.8-95.1c2.7-2.7,2.8-7.1,0.1-9.8c-2.7-2.7-7.1-2.8-9.8-0.1c-31.3,30.7-47.4,66-47.9,104.9
	c-4.5-1.6-10.1-4-15.7-6.4c-25.7-11-64.6-27.6-95.7-13.4C98.7,172.5,80,240.2,95,308.7c18.6,85.1,78.8,135.9,160.9,135.9
	C366.8,444.5,419.2,357.1,422,270.5z M255.9,430.7c-111.4,0-141-95.7-147.4-125c-13.4-61.4,2.2-123.5,34.8-138.5
	c6.7-3.1,14-4.3,21.5-4.3c21.2,0,44.6,10,62.9,17.8c12.5,5.4,21.6,9.2,28.1,9.2h0h0h0h0c0.1,0,0.2,0,0.3,0c0,0,0,0,0,0
	c6.5-0.1,15.5-4,27.8-9.2c18.9-8.1,44.6-19.2,67.1-17.7c39.6,2.6,58.6,55.7,56.9,107C405.6,350,357.5,430.7,255.9,430.7L255.9,430.7
	z M262.8,386.4c0,3.8-3.1,6.9-6.9,6.9c-54.3,0-92.8-30.6-108.4-86c-1-3.7,1.1-7.5,4.8-8.5c3.7-1.1,7.5,1.1,8.5,4.8
	c14,49.7,46.9,76,95.1,76C259.7,379.4,262.8,382.5,262.8,386.4z M5,146.8V11.9C5,8.1,8.1,5,11.9,5h134.9c3.8,0,6.9,3.1,6.9,6.9
	s-3.1,6.9-6.9,6.9h-128v128c0,3.8-3.1,6.9-6.9,6.9S5,150.7,5,146.8L5,146.8z M507,11.9v134.9c0,3.8-3.1,6.9-6.9,6.9
	s-6.9-3.1-6.9-6.9v-128h-128c-3.8,0-6.9-3.1-6.9-6.9s3.1-6.9,6.9-6.9h134.9C503.9,5,507,8.1,507,11.9z M153.8,500.1
	c0,3.8-3.1,6.9-6.9,6.9H11.9c-3.8,0-6.9-3.1-6.9-6.9V365.2c0-3.8,3.1-6.9,6.9-6.9s6.9,3.1,6.9,6.9v128h128
	C150.7,493.2,153.8,496.3,153.8,500.1z M507,365.2v134.9c0,3.8-3.1,6.9-6.9,6.9H365.2c-3.8,0-6.9-3.1-6.9-6.9s3.1-6.9,6.9-6.9h128
	v-128c0-3.8,3.1-6.9,6.9-6.9S507,361.3,507,365.2z"/>
</svg>
