<?xml version="1.0" encoding="utf-8"?>
<!-- Generator: Adobe Illustrator 24.0.1, SVG Export Plug-In . SVG Version: 6.00 Build 0)  -->
<svg version="1.1" id="图层_1" xmlns="http://www.w3.org/2000/svg" xmlns:xlink="http://www.w3.org/1999/xlink" x="0px" y="0px"
	 viewBox="0 0 512 512" style="enable-background:new 0 0 512 512;" xml:space="preserve">
<style type="text/css">
	.st0{fill-rule:evenodd;clip-rule:evenodd;}
</style>
<g id="Icon">
	<path class="st0" d="M221.4,443.4H49.7c-1.2,0-2.4-0.5-3.2-1.3c-0.9-0.9-1.3-2-1.3-3.2c0,0,0-33,0-33c0-18.9,13.5-35.5,34.3-49.7
		c37.1-25.3,97.2-41.3,164.7-41.3c11.1,0,22.1,0.5,32.8,1.3c9.4,0.8,17.6-6.3,18.4-15.6c0.7-9.4-6.3-17.6-15.7-18.4
		c-11.6-0.9-23.4-1.4-35.5-1.4c-75.6,0-142.4,18.9-184,47.2C28.5,349.6,11,377.1,11,405.9v33c0,10.2,4.1,20.1,11.3,27.3
		c7.3,7.2,17.1,11.3,27.3,11.3c45.9,0,171.7,0,171.7,0c9.4,0,17.1-7.7,17.1-17.1C238.4,451.1,230.8,443.4,221.4,443.4L221.4,443.4z"
		/>
	<path class="st0" d="M244.1,11C175.1,11,119,67,119,136.1s56,125.1,125.1,125.1s125.1-56,125.1-125.1S313.2,11,244.1,11z
		 M244.1,45.1c50.2,0,91,40.8,91,91s-40.8,91-91,91s-91-40.8-91-91S193.9,45.1,244.1,45.1z"/>
	<path class="st0" d="M395.4,442.2c27.6,4.1,56.7-4.4,77.9-25.6c35.5-35.5,35.5-93.2,0-128.7c-35.5-35.5-93.2-35.5-128.7,0
		c-21.2,21.2-29.8,50.4-25.6,77.9c0,0-52.8,52.8-52.8,52.8c-3.2,3.2-5,7.6-5,12.1v52.3c0,9.4,7.6,17.1,17.1,17.1h52.3
		c4.5,0,8.9-1.8,12.1-5L395.4,442.2z M394.2,407.2c-5.9-1.6-12.1,0.1-16.4,4.4l-54.3,54.3h-28.2v-28.2l54.3-54.3
		c4.3-4.3,6-10.6,4.4-16.4c-5-19-0.2-40.1,14.7-55c22.2-22.2,58.2-22.2,80.5,0c22.2,22.2,22.2,58.3,0,80.5
		C434.3,407.3,413.2,412.2,394.2,407.2L394.2,407.2z"/>
	<path class="st0" d="M391.6,369.6c-9.6-9.6-9.6-25.2,0-34.9c9.6-9.6,25.2-9.6,34.9,0c9.6,9.6,9.6,25.2,0,34.9
		C416.8,379.3,401.2,379.3,391.6,369.6L391.6,369.6z"/>
</g>
</svg>
