<?xml version="1.0" encoding="utf-8"?>
<!-- Generator: Adobe Illustrator 24.0.1, SVG Export Plug-In . SVG Version: 6.00 Build 0)  -->
<svg version="1.1" id="_图层_1" xmlns="http://www.w3.org/2000/svg" xmlns:xlink="http://www.w3.org/1999/xlink" x="0px" y="0px"
	 viewBox="0 0 24 24" style="enable-background:new 0 0 24 24;" xml:space="preserve">
<path d="M5.6,1.3c0,0.5,0.5,1.1,1.1,1.1h10.7c0.5,0,1.1-0.5,1.1-1.1h2.1c0,1.8-1.4,3.2-3.2,3.2h-4.3v2.2c4.2,0.5,7.5,4.1,7.5,8.5
	v6.4c0,0.6-0.4,1.1-1.1,1.1h-15c-0.6,0-1.1-0.4-1.1-1.1v-6.4c0-4.4,3.3-8,7.5-8.5V4.5H6.6c-1.8,0-3.2-1.4-3.2-3.2
	C3.4,1.3,5.6,1.3,5.6,1.3z M12,10.9c-2.4,0-4.3,1.9-4.3,4.3s1.9,4.3,4.3,4.3s4.3-1.9,4.3-4.3s-0.2-1.5-0.6-2.1l-3,3h-0.1
	c-0.4,0.4-1.1,0.4-1.4,0c-0.4-0.4-0.4-1.1,0-1.5l3-3C13.5,11.2,12.8,10.9,12,10.9z"/>
</svg>
