<svg height="512" viewBox="0 0 96 96" width="512" xmlns="http://www.w3.org/2000/svg"><g id="Layer_4"><g><path d="m89.783 85.557c1.195-1.474 1.654-3.381 1.265-5.237l-9.52-45.22c-.61-2.882-3.188-4.974-6.131-4.974h-54.794c-2.943 0-5.521 2.092-6.131 4.974l-9.52 45.221c-.389 1.853.07 3.762 1.265 5.237 1.195 1.472 2.97 2.318 4.866 2.318h73.835c1.895-.001 3.67-.847 4.865-2.319zm-79.294-3.464c-.086-.107-.22-.33-.156-.639l9.52-45.221c.075-.352.389-.607.749-.607h54.795c.36 0 .674.255.749.607l9.52 45.221c.064.309-.07.532-.156.639-.086.105-.277.282-.593.282h-73.834c-.317 0-.508-.177-.594-.282z"/><path d="m48 40.438c-10.234 0-18.562 8.328-18.562 18.562s8.328 18.563 18.562 18.563 18.562-8.328 18.562-18.563-8.328-18.562-18.562-18.562zm0 31.625c-7.202 0-13.062-5.86-13.062-13.062s5.86-13.063 13.062-13.063 13.062 5.86 13.062 13.062-5.86 13.063-13.062 13.063z"/><path d="m51.327 51.927-5.245 5.102c-1.09 1.058-1.112 2.801-.054 3.889.54.553 1.254.833 1.971.833.693 0 1.383-.258 1.917-.779l5.245-5.102c1.088-1.058 1.112-2.801.054-3.889-1.06-1.088-2.8-1.115-3.888-.054z"/><path d="m6.95 17.424c2.221 4.442 6.687 7.202 11.655 7.202h58.791c4.968 0 9.434-2.761 11.655-7.202l2.659-5.317c.679-1.359.129-3.01-1.23-3.69-1.359-.674-3.01-.129-3.69 1.23l-2.659 5.317c-1.284 2.567-3.864 4.163-6.735 4.163h-58.791c-2.871 0-5.452-1.595-6.735-4.163l-2.659-5.317c-.679-1.362-2.334-1.909-3.69-1.23-1.359.679-1.909 2.331-1.23 3.69z"/></g></g></svg>