<?xml version="1.0" encoding="UTF-8"?>
<svg id="_图层_1" data-name="图层 1" xmlns="http://www.w3.org/2000/svg" version="1.1" viewBox="0 0 24 24">
  <path d="M4.8,0c0,.6.6,1.2,1.2,1.2h12c.6,0,1.2-.6,1.2-1.2h2.4c0,2-1.6,3.6-3.6,3.6h-4.8v2.5c4.7.6,8.4,4.6,8.4,9.5v7.2c0,.7-.5,1.2-1.2,1.2H3.6c-.7,0-1.2-.5-1.2-1.2v-7.2c0-4.9,3.7-8.9,8.4-9.5v-2.5h-4.8c-2,0-3.6-1.6-3.6-3.6h2.4ZM12,10.8c-2.7,0-4.8,2.1-4.8,4.8s2.1,4.8,4.8,4.8,4.8-2.1,4.8-4.8-.2-1.7-.7-2.4l-3.3,3.3h-.1c-.5.5-1.2.4-1.6,0-.5-.5-.5-1.2,0-1.7l3.3-3.3c-.7-.4-1.5-.7-2.4-.7Z"/>
</svg>
