<?xml version="1.0" encoding="utf-8"?>
<!-- Generator: Adobe Illustrator 24.0.1, SVG Export Plug-In . SVG Version: 6.00 Build 0)  -->
<svg version="1.1" id="Layer_1" xmlns="http://www.w3.org/2000/svg" xmlns:xlink="http://www.w3.org/1999/xlink" x="0px" y="0px"
	 viewBox="0 0 512 512" style="enable-background:new 0 0 512 512;" xml:space="preserve">
<g id="_x32_8">
	<path d="M167.5,138.9c-8.1-8.1-21.3-8.1-29.4,0c-65,64.8-65,170.7,0,235.7c7.8,7.8,21.1,8.3,29.4,0c8.1-8.1,8.1-21.3,0-29.4
		c-48.8-48.8-48.8-128.2,0-176.9C175.7,160.2,175.7,147,167.5,138.9z"/>
	<path d="M432.8,433.6c97.5-97.5,97.5-256.2,0-353.7c-8.1-8.1-21.3-8.1-29.4,0c-8.1,8.1-8.1,21.3,0,29.4
		c81.3,81.3,81.3,213.6,0,294.7c-8.1,8.1-8.1,21.5,0,29.6C411.8,441.9,425.1,441.4,432.8,433.6z"/>
	<path d="M344.5,374.6c7.8,7.8,21.1,8.3,29.4,0c65-65,65-170.7,0-235.7c-8.1-8.1-21.3-8.1-29.4,0c-8.1,8.1-8.1,21.3,0,29.4
		c48.8,48.8,48.8,128.2,0,176.9C336.3,353.4,336.3,366.5,344.5,374.6z"/>
	<path d="M79.2,433.6c8.8,8.4,21.6,7.7,29.4,0c8.1-8.1,8.1-21.5,0-29.6c-81.3-81.1-81.3-213.4,0-294.7c8.1-8.1,8.1-21.3,0-29.4
		c-8.1-8.1-21.3-8.1-29.4,0C-18.4,177.5-18.4,336.1,79.2,433.6z"/>
	<path d="M256.1,188c-37.9,0-68.6,30.9-68.6,68.6c0,37.9,30.7,68.6,68.6,68.6c37.8,0,68.6-30.7,68.6-68.6
		C324.7,218.9,293.9,188,256.1,188z"/>
</g>
</svg>
