<?xml version="1.0" encoding="utf-8"?>
<!-- Generator: Adobe Illustrator 24.0.1, SVG Export Plug-In . SVG Version: 6.00 Build 0)  -->
<svg version="1.1" id="Capa_1" xmlns="http://www.w3.org/2000/svg" xmlns:xlink="http://www.w3.org/1999/xlink" x="0px" y="0px"
	 viewBox="0 0 512 512" style="enable-background:new 0 0 512 512;" xml:space="preserve">
<g>
	<g>
		<path d="M256,498c133.4,0,242-108.6,242-242S389.4,14,256,14S14,122.6,14,256S122.6,498,256,498z M256,46.3
			c115.7,0,209.7,94.1,209.7,209.7S371.7,465.7,256,465.7S46.3,371.7,46.3,256S140.3,46.3,256,46.3L256,46.3z"/>
		<path d="M326.6,333.1c3,2.4,6.5,3.5,10.1,3.5c4.8,0,9.4-2.1,12.6-6c5.6-6.9,4.4-17.1-2.5-22.7l-74.6-59.7V126.9
			c0-8.9-7.3-16.1-16.1-16.1c-8.9,0-16.1,7.3-16.1,16.1V256c0,4.9,2.3,9.5,6,12.6L326.6,333.1z"/>
	</g>
</g>
</svg>
