<?xml version="1.0" encoding="utf-8"?>
<!-- Generator: Adobe Illustrator 24.0.1, SVG Export Plug-In . SVG Version: 6.00 Build 0)  -->
<svg version="1.1" id="Layer_1" xmlns="http://www.w3.org/2000/svg" xmlns:xlink="http://www.w3.org/1999/xlink" x="0px" y="0px"
	 viewBox="0 0 512 512" style="enable-background:new 0 0 512 512;" xml:space="preserve">
<path d="M492.7,450.6l-57.9-277.8c-0.9-4.4-4.8-7.6-9.4-7.6H265.3v-53.6h147.4c27.9,0,50.6-22.7,50.6-50.6c0-5.3-4.3-9.6-9.6-9.6
	c-5.3,0-9.6,4.3-9.6,9.6c0,17.3-14.1,31.4-31.4,31.4h-314c-17.3,0-31.4-14.1-31.4-31.4c0-5.3-4.3-9.6-9.6-9.6s-9.6,4.3-9.6,9.6
	c0,27.9,22.7,50.6,50.6,50.6h147.4v53.6H85.9c-4.5,0-8.4,3.2-9.4,7.6L18.4,451.9c-0.6,2.8,0.1,5.8,1.9,8s4.5,3.5,7.4,3.5h455.8
	c0,0,0.1,0,0.1,0c5.3,0,9.6-4.3,9.6-9.6C493.3,452.7,493.1,451.6,492.7,450.6L492.7,450.6z M39.6,444.3l54.2-260h324l54.2,260H39.6z
	"/>
<path d="M256,207.6c-60.2,0-109.2,49-109.2,109.2s49,109.2,109.2,109.2s109.2-49,109.2-109.2S316.2,207.6,256,207.6L256,207.6z
	 M256,405.6c-48.9,0-88.8-39.8-88.8-88.8c0-48.9,39.8-88.8,88.8-88.8s88.8,39.8,88.8,88.8C344.8,365.8,304.9,405.6,256,405.6z"/>
<path d="M276.8,280.2l-28.2,29.6c-3.9,4.1-3.7,10.6,0.4,14.5c2,1.9,4.5,2.8,7.1,2.8c2.7,0,5.4-1.1,7.4-3.2l28.2-29.6
	c3.9-4.1,3.7-10.6-0.3-14.5C287.2,275.9,280.7,276.1,276.8,280.2L276.8,280.2z"/>
</svg>
