<svg width="24" height="24" viewBox="0 0 24 24" fill="none" xmlns="http://www.w3.org/2000/svg">
    <path
        d="M21.2868 21H15.0955C14.904 21 14.7204 20.924 14.585 20.7886C14.4496 20.6533 14.3735 20.4697 14.3735 20.2783V14.811H9.6263V20.2783C9.6263 20.4697 9.55023 20.6533 9.41483 20.7886C9.27943 20.924 9.09578 21 8.90429 21H2.71304C2.61865 21 2.52519 20.9813 2.43809 20.9449C2.351 20.9085 2.27199 20.8552 2.20567 20.7881C2.13934 20.7209 2.08701 20.6413 2.05172 20.5538C2.01642 20.4663 1.99886 20.3726 2.00006 20.2783V9.45201C1.99979 9.34746 2.02225 9.24409 2.06588 9.14907C2.10951 9.05405 2.17328 8.96964 2.25276 8.90168L11.5396 1.16092C11.667 1.05685 11.8264 1 11.9909 1C12.1554 1 12.3148 1.05685 12.4421 1.16092L21.7471 8.89266C21.8265 8.96062 21.8903 9.04503 21.9339 9.14005C21.9776 9.23507 22 9.33843 21.9998 9.44299V20.2692C22.0022 20.3643 21.9855 20.459 21.9508 20.5475C21.916 20.6361 21.8639 20.7168 21.7974 20.7849C21.731 20.853 21.6516 20.9071 21.5639 20.9441C21.4762 20.981 21.382 21 21.2868 21ZM15.8175 19.5565H20.5648V9.78582L11.9999 2.65855L3.43505 9.78582V19.5565H8.18228V14.0893C8.18228 13.9945 8.20095 13.9006 8.23724 13.813C8.27352 13.7255 8.32671 13.6459 8.39375 13.5789C8.4608 13.5119 8.54039 13.4587 8.62799 13.4224C8.71559 13.3862 8.80947 13.3675 8.90429 13.3675H15.0955C15.287 13.3675 15.4707 13.4435 15.6061 13.5789C15.7415 13.7143 15.8175 13.8978 15.8175 14.0893V19.5565Z"
        fill="currentColor" />
</svg>