<svg t="1736491369332" class="icon" viewBox="0 0 1024 1024" version="1.1" xmlns="http://www.w3.org/2000/svg" p-id="26476" xmlns:xlink="http://www.w3.org/1999/xlink" width="512" height="512"><path d="M472.092444 65.706667l44.913778 36.494222a79.246222 79.246222 0 0 0-24.32 51.598222c-1.28 18.090667-2.673778 36.408889-4.266666 52.792889-0.512 0.199111-1.137778 0.284444-1.507556 0.512-18.005333 5.290667-48.213333 14.108444-67.299556 42.894222l-0.312888 0.512-0.284445 0.483556a80.554667 80.554667 0 0 0-3.128889 83.2c16.099556 29.411556 49.92 49.208889 90.737778 54.016-1.024 1.792-2.019556 3.697778-3.015111 5.489778-0.398222 0.796444-0.910222 1.592889-1.308445 2.389333a65.137778 65.137778 0 0 0-30.606222-1.592889c-3.982222-0.881778-9.187556-2.190222-13.198222-3.100444-15.388444-3.783111-31.402667-7.793778-47.388444-7.793778-2.616889 0-5.205333 0.085333-7.708445 0.284444a74.609778 74.609778 0 0 0-58.510222 36.522667c-17.578667 1.991111-33.877333 11.377778-44.487111 25.799111-5.404444 7.395556-16.782222 26.88-10.609778 53.105778 0.284444 4.494222 0.796444 9.500444 1.422222 15.473778 1.080889 11.52 2.474667 26.311111 3.584 44.003555-10.410667-4.977778-21.987556-8.817778-33.592889-8.988444-0.910222 0-1.592889-0.113778-2.104889-0.113778-1.592889-2.702222-5.489778-10.695111-8.305777-29.582222-3.299556-22.414222-3.498667-49.92-3.498667-76.231111 0-18.688-5.802667-53.674667-44.373333-77.283556a108.003556 108.003556 0 0 0-56.32-15.786667 111.502222 111.502222 0 0 0-55.182223 14.705778l-2.531555-1.024A447.800889 447.800889 0 0 1 195.185778 195.413333a446.179556 446.179556 0 0 1 142.421333-95.971555 438.784 438.784 0 0 1 134.485333-33.706667m462.506667 343.096889l15.701333 9.784889c6.513778 30.520889 9.699556 61.724444 9.699556 93.411555 0 22.101333-1.592889 43.889778-4.693333 65.507556l-54.499556 48.896a191.516444 191.516444 0 0 0-5.006222-7.395556c-15.075556-20.906667-30.094222-38.4-44.600889-51.911111a71.68 71.68 0 0 1-14.990222-18.488889 23.950222 23.950222 0 0 1-3.299556-13.312c0.398222-7.509333 4.266667-17.009778 11.377778-27.591111 11.804444-17.493333 31.203556-36.693333 57.713778-57.116444l37.603555-28.785778-5.006222-12.999111m-484.693333 276.394667c4.181333 2.702222 8.817778 5.290667 13.681778 7.594666 7.907556 3.697778 21.703111 16.696889 31.715555 26.112 14.592 13.681778 30.407111 28.501333 49.208889 38.200889 9.585778 22.385778 24.291556 34.417778 38.485333 40.590222-13.198222 17.408-22.300444 36.608-29.582222 57.6l0.085333-7.68-27.392-19.626666a506.88 506.88 0 0 1-41.216-33.678222c-29.696-27.022222-38.798222-42.325333-41.187555-47.104 0.284444-15.018667 2.104889-27.022222 3.584-36.807112 1.308444-7.196444 2.616889-15.786667 2.616889-25.201777M512 0C229.205333 0 0 229.205333 0 512s229.205333 512 512 512 512-229.205333 512-512S794.794667 0 512 0z m14.222222 325.205333c-38.229333 0-65.820444-20.309333-53.333333-39.822222 15.928889-23.893333 72.817778-10.581333 77.937778-58.595555 2.275556-22.186667 4.266667-47.189333 5.774222-68.494223a15.303111 15.303111 0 0 1 14.392889-14.193777c37.205333-2.702222 41.016889-46.990222 6.200889-75.292445 37.518222 5.404444 74.097778 15.587556 109.226666 30.492445a447.800889 447.800889 0 0 1 142.364445 96 448.512 448.512 0 0 1 89.6 127.800888 32.227556 32.227556 0 0 0-17.379556-5.205333c-28.216889 0-54.215111 38.4-38.001778 82.005333-133.006222 102.001778-98.901333 173.397333-55.495111 213.987556 12.8 12.003556 25.400889 27.420444 36.408889 42.723556 10.581333 14.592 17.180444 31.488 20.992 49.208888 1.393778 6.371556 6.4 9.585778 13.681778 9.585778 11.008 0 27.022222-7.310222 43.121778-21.703111a446.293333 446.293333 0 0 1-92.928 135.196445 445.639111 445.639111 0 0 1-217.372445 120.092444 25.998222 25.998222 0 0 0-5.006222-0.398222c-3.498667 0-7.509333 0.512-12.003555 1.706666 15.502222-65.507556 22.897778-102.4 54.897777-130.190222 44.003556-38.200889 9.699556-80.412444-24.007111-80.412444-1.905778 0-3.896889 0.113778-5.802666 0.398222-1.479111 0.199111-2.787556 0.284444-3.982223 0.284444-22.186667 0-7.509333-34.872889-31.004444-36.892444-24.803556-2.076444-57.315556-51.399111-93.411556-68.494222-18.887111-8.988444-37.489778-33.194667-66.901333-34.503111h-1.706667c-18.574222 0-42.382222 11.093333-54.385777 11.093333-4.807111 0-7.793778-1.792-7.793778-6.684444 0-57.088-5.916444-97.706667-6.826667-113.777778-0.369778-5.518222-1.991111-7.111111-1.080889-7.111111 1.194667 0 7.196444 3.185778 27.790222 3.697777h0.398223c18.602667 0 9.699556-38.513778 28.103111-40.021333 0.796444-0.085333 1.621333-0.085333 2.417778-0.085333 16.384 0 47.502222 11.804444 63.800888 11.804444a14.506667 14.506667 0 0 0 7.879112-1.706666c0.199111-0.113778 0.426667-0.199111 0.711111-0.199112 8.817778 0 43.406222 86.300444 62.805333 86.300445 7.992889 0 13.397333-14.705778 13.397333-56.007111 0-17.095111-8.988444-46.904889 0-63.288889 35.100444-64.199111 67.896889-116.707556 65.109334-124.103111-0.910222-2.275556-11.320889-4.408889-25.031111-4.408889-11.662222 0-25.685333 1.507556-38.286223 5.603555-9.386667 3.128889 2.816 17.692444-10.183111 20.792889a116.992 116.992 0 0 1-25.116444 2.816zM93.013333 430.307556c9.671111 0 19.399111-2.417778 27.079111-7.594667 8.021333-5.319111 17.294222-8.106667 26.510223-8.106667 7.907556 0 15.786667 2.104889 22.784 6.4 8.106667 5.006222 13.824 11.605333 13.824 22.784 0 81.635556 2.787556 168.704 76.885333 170.012445 2.190222 0 41.216 14.904889 59.790222 63.288889 2.218667 5.603556 6.513778 7.395556 12.231111 7.395555 11.491556 0 28.984889-7.395556 47.587556-7.395555 13.909333 0 0 23.608889 0 74.524444 0.085333 50.375111 109.283556 128.483556 109.283555 128.483556a602.851556 602.851556 0 0 0 3.299556 79.388444 444.330667 444.330667 0 0 1-154.680889-34.787556 447.800889 447.800889 0 0 1-142.392889-96 445.639111 445.639111 0 0 1-96.028444-142.392888C75.804444 631.182222 64 572.501333 64 512c0-29.013333 2.702222-57.6 8.106667-85.504 6.599111 2.503111 13.795556 3.811556 20.906666 3.811556z" p-id="26477"></path></svg>