<?xml version="1.0" encoding="iso-8859-1"?>
<!-- Generator: Adobe Illustrator 24.0.1, SVG Export Plug-In . SVG Version: 6.00 Build 0)  -->
<svg version="1.1" id="&#x56FE;&#x5C42;_1" xmlns="http://www.w3.org/2000/svg" xmlns:xlink="http://www.w3.org/1999/xlink" x="0px"
	 y="0px" viewBox="0 0 596.74 129.714" style="enable-background:new 0 0 596.74 129.714;" xml:space="preserve">
<g>
	<g>
		<path d="M96.756,0H32.95C14.754,0,0,14.754,0,32.95v63.848c0,18.18,14.737,32.916,32.916,32.916h63.883
			c18.18,0,32.915-14.737,32.915-32.916V32.95C129.714,14.831,114.883,0,96.756,0z M19.678,34.638
			c0.142-0.158,0.407-0.192,0.602-0.085l5.159,2.918c1.744,0.889,3.399,1.901,5.203,2.675c1.806,0.773,3.514,1.699,5.39,2.316
			c1.84,0.681,3.646,1.412,5.549,1.914c7.505,2.273,15.373,3.493,23.258,3.499c7.893-0.007,15.761-1.226,23.258-3.506
			c1.911-0.502,3.717-1.241,5.548-1.922c1.877-0.609,3.585-1.541,5.39-2.309c1.796-0.781,3.451-1.792,5.203-2.682l5.151-2.918
			c0.23-0.136,0.53-0.071,0.681,0.136c0.063,0.095,0.081,0.204,0.063,0.309c0.007,0.168-0.048,0.339-0.17,0.449
			c-0.211,0.202-0.425,0.401-0.637,0.602c-0.019,0.118-0.071,0.229-0.158,0.308c-3.016,2.886-6.19,5.625-9.571,8.146
			c-3.426,2.381-7.025,4.565-10.834,6.164c-7.572,3.364-15.744,5.068-23.925,5.129c-8.173-0.06-16.345-1.773-23.917-5.138
			c-3.809-1.609-7.399-3.781-10.824-6.172c-3.382-2.522-6.547-5.26-9.563-8.146c-0.089-0.081-0.138-0.19-0.154-0.304
			c-0.214-0.202-0.429-0.402-0.641-0.606c-0.124-0.114-0.174-0.279-0.163-0.442C19.558,34.857,19.587,34.735,19.678,34.638z
			 M117.926,96.45c0,11.859-9.616,21.474-21.474,21.474H71.405V114.9c0-3.33-2.375-6.304-5.669-6.739
			c-3.99-0.53-7.433,2.599-7.433,6.495v3.268H33.255c-11.858,0-21.474-9.615-21.474-21.474V57.172c0-4.634,5.538-6.973,8.911-3.809
			c11.606,10.772,27.134,17.388,44.166,17.388s32.55-6.617,44.157-17.388c3.382-3.165,8.911-0.825,8.911,3.809V96.45z"/>
		<g>
			<path d="M88.885,83.103c-3.608,0-6.555,2.947-6.555,6.555v6.547c0,3.608,2.947,6.555,6.555,6.555
				c3.599,0,6.547-2.947,6.547-6.555v-6.547C95.432,86.051,92.485,83.103,88.885,83.103z"/>
			<path d="M40.829,83.103c-3.599,0-6.547,2.947-6.547,6.555v6.547c0,3.608,2.947,6.555,6.547,6.555
				c3.608,0,6.555-2.947,6.555-6.555v-6.547C47.384,86.051,44.437,83.103,40.829,83.103z"/>
		</g>
	</g>
	<g>
		<g>
			<g>
				<path d="M189.32,21.421l-0.003-0.001c-2.929-1.057-6.904-1.57-12.15-1.57h-21.511v49.989h21.511
					c4.549,0,7.86-0.205,10.123-0.626c2.316-0.43,4.476-1.267,6.436-2.498c3.102-2.008,5.348-5.136,6.671-9.289
					c1.273-3.899,1.919-8.096,1.919-12.476c0-4.43-0.671-8.656-1.998-12.571C198.477,27.088,194.777,23.401,189.32,21.421z
					 M168.436,30.93h8.732c3.536,0,6.116,0.697,7.667,2.071c1.059,0.977,1.943,2.531,2.628,4.618
					c0.714,2.18,1.076,4.622,1.076,7.261c0,2.375-0.307,4.643-0.912,6.74l0,0c-0.585,2.027-1.346,3.604-2.262,4.686
					c-1.442,1.628-4.2,2.453-8.197,2.453h-8.732V30.93z"/>
				<path d="M221.831,20.834c-2.15,0.67-4.198,1.861-6.093,3.548c-5.353,4.828-8.067,11.63-8.067,20.215
					c0,7.709,1.926,13.939,5.725,18.517c2.717,3.267,6.419,5.309,11.015,6.071c2.769,0.434,6.007,0.655,9.622,0.655h14.52V58.758
					h-14.022c-4.573,0-7.802-0.706-9.597-2.099c-1.5-1.163-2.491-3.223-2.955-6.133h26.574V39.445h-26.619
					c0.15-1.437,0.319-2.499,0.502-3.164c0.216-0.781,0.635-1.588,1.242-2.394c0.88-1.155,1.943-1.909,3.25-2.304
					c1.439-0.433,3.829-0.653,7.105-0.653h14.52V19.85H230.18C226.734,19.85,223.924,20.181,221.831,20.834z"/>
				<path d="M268.068,20.834c-2.15,0.67-4.198,1.862-6.093,3.548c-5.353,4.828-8.067,11.63-8.067,20.215
					c0,7.709,1.926,13.939,5.725,18.517c2.717,3.267,6.42,5.309,11.015,6.071c2.769,0.434,6.007,0.655,9.622,0.655h14.52V58.758
					h-14.022c-4.573,0-7.802-0.706-9.597-2.099c-1.5-1.163-2.491-3.223-2.955-6.133h26.574V39.445h-26.619
					c0.15-1.437,0.319-2.499,0.502-3.164c0.216-0.781,0.635-1.588,1.242-2.394c0.88-1.155,1.943-1.909,3.25-2.304
					c1.439-0.433,3.829-0.653,7.105-0.653h14.52V19.85h-18.373C272.971,19.85,270.161,20.181,268.068,20.834z"/>
				<path d="M334.915,20.841c-2.012-0.667-5.182-0.991-9.693-0.991h-25.077v49.989h12.779V53.297h14.937
					c2.914,0,5.173-0.251,6.906-0.767c1.766-0.524,3.454-1.473,5.026-2.828c1.716-1.502,3.07-3.447,4.025-5.783
					c0.939-2.303,1.416-4.774,1.416-7.345c0-3.092-0.725-6.001-2.161-8.656C341.108,24.365,338.363,21.984,334.915,20.841z
					 M331.457,36.218c0,2.494-0.574,4.224-1.706,5.142c-0.526,0.393-1.714,0.855-4.387,0.855h-12.441V30.93h12.655
					c1.962,0,2.902,0.217,3.353,0.402C331.196,32.242,331.457,34.556,331.457,36.218z"/>
				<path d="M393.453,41.163L393.453,41.163c1.43-2.33,2.155-4.878,2.155-7.573c0-2.074-0.448-4.098-1.326-6
					c-1.262-2.827-3.171-4.881-5.675-6.107c-2.115-1.099-5.321-1.634-9.802-1.634h-28.216v49.989h27.645
					c4.134,0,7.192-0.36,9.349-1.101c2.255-0.774,4.129-2.191,5.573-4.215c1.627-2.299,2.451-5.158,2.451-8.496
					c0-4.981-1.855-8.722-5.521-11.152C391.379,43.945,392.506,42.704,393.453,41.163z M380.06,57.9l-0.035,0.028
					c-0.409,0.338-0.829,0.55-1.285,0.648c-0.389,0.083-1.214,0.182-2.931,0.182h-12.441v-8.374h12.655
					c2.555,0,3.725,0.42,4.264,0.778c1.004,0.655,1.471,1.637,1.471,3.09C381.759,55.825,381.203,57.018,380.06,57.9z
					 M380.062,38.444c-0.458,0.351-0.918,0.579-1.368,0.679c-0.373,0.083-1.177,0.182-2.885,0.182h-12.441V30.93h12.655
					c2.555,0,3.725,0.42,4.264,0.778c1.004,0.655,1.471,1.637,1.471,3.09C381.759,36.369,381.204,37.562,380.062,38.444z"/>
				<path d="M415.122,20.834c-2.15,0.67-4.198,1.861-6.093,3.548c-5.353,4.828-8.067,11.63-8.067,20.215
					c0,7.709,1.926,13.939,5.724,18.517c2.717,3.267,6.419,5.309,11.015,6.071c2.769,0.434,6.007,0.655,9.622,0.655h14.52V58.758
					h-14.022c-4.573,0-7.802-0.706-9.598-2.099c-1.5-1.163-2.491-3.223-2.954-6.133h26.574V39.445h-26.619
					c0.15-1.437,0.318-2.499,0.502-3.164c0.216-0.781,0.635-1.588,1.242-2.394c0.879-1.155,1.943-1.909,3.25-2.304
					c1.439-0.433,3.829-0.653,7.105-0.653h14.52V19.85h-18.373C420.025,19.85,417.216,20.181,415.122,20.834z"/>
				<path d="M492.215,61.262c-0.149-2.128-0.359-3.711-0.642-4.842l0-0.001
					c-0.286-1.135-0.739-2.325-1.348-3.535l-0.015-0.03c-0.843-1.575-1.827-2.804-2.925-3.653c-0.472-0.364-1.028-0.714-1.674-1.053
					c1.244-0.675,2.328-1.487,3.242-2.428l0.021-0.022c2.504-2.699,3.774-6.51,3.774-11.328c0-2.424-0.542-4.693-1.61-6.747
					c-1.079-2.068-2.638-3.753-4.632-5.008c-2.864-1.861-7.649-2.766-14.626-2.766h-24.578v49.989h12.779V51.875l6.823,0
					c3.265-0.044,5.752,0.38,7.394,1.254c1.246,0.723,2.156,1.678,2.779,2.916c0.658,1.312,1.105,3.279,1.328,5.846l0.003,0.032
					c0.393,3.526,0.76,5.81,1.12,6.984l0.286,0.932h14.182l-0.606-1.744C492.851,66.837,492.489,64.532,492.215,61.262z
					 M478.869,35.579c0,2.163-0.559,3.597-1.709,4.384l-0.019,0.013c-0.526,0.374-1.699,0.82-4.293,0.82h-12.869V30.93h12.869
					c2.051,0,3.025,0.191,3.479,0.351C477.418,31.665,478.869,32.529,478.869,35.579z"/>
				<path d="M544.263,61.262c-0.149-2.128-0.359-3.711-0.642-4.842l0-0.001
					c-0.286-1.135-0.739-2.325-1.349-3.535l-0.015-0.029c-0.843-1.576-1.827-2.804-2.925-3.653
					c-0.472-0.364-1.028-0.714-1.674-1.053c1.244-0.675,2.328-1.487,3.242-2.428l0.021-0.022c2.504-2.699,3.774-6.51,3.774-11.328
					c0-2.424-0.542-4.693-1.61-6.747c-1.079-2.068-2.638-3.753-4.632-5.008c-2.864-1.861-7.649-2.766-14.626-2.766h-24.578v49.989
					h12.779V51.875l6.823,0c3.264-0.044,5.752,0.38,7.394,1.254c1.247,0.723,2.156,1.678,2.779,2.916
					c0.658,1.312,1.105,3.279,1.328,5.846l0.003,0.032c0.393,3.525,0.76,5.81,1.12,6.984l0.286,0.932h14.182l-0.606-1.744
					C544.899,66.837,544.538,64.532,544.263,61.262z M530.917,35.579c0,2.163-0.559,3.597-1.709,4.384l-0.019,0.013
					c-0.526,0.374-1.698,0.82-4.293,0.82h-12.869V30.93h12.869c2.052,0,3.025,0.191,3.479,0.351
					C529.466,31.665,530.917,32.529,530.917,35.579z"/>
				<polygon points="581.437,19.85 570.723,37.14 560.541,19.85 545.485,19.85 564.233,48.185
					564.233,69.839 577.012,69.839 577.012,48.552 596.74,19.85 				"/>
			</g>
		</g>
		<g>
			<path d="M326.43,95.322c0,4.295,3.509,7.804,7.804,7.804h7.794c4.295,0,7.804-3.509,7.804-7.804
				c0-4.285-3.509-7.794-7.804-7.794h-7.794C329.939,87.528,326.43,91.036,326.43,95.322z"/>
			<path d="M355.694,88.789c3.608,0,6.544,2.931,6.544,6.533c0,3.608-2.935,6.543-6.544,6.543H347.9
				c-3.608,0-6.544-2.935-6.544-6.543c0-3.602,2.935-6.533,6.544-6.533H355.694 M355.694,87.528H347.9
				c-4.295,0-7.804,3.509-7.804,7.794c0,4.295,3.509,7.804,7.804,7.804h7.794c4.295,0,7.804-3.509,7.804-7.804
				C363.498,91.036,359.989,87.528,355.694,87.528L355.694,87.528z"/>
		</g>
		<g>
			<path d="M164.826,89.938h-2.699l2.699,6.589h-5.478l-3.691-8.994h2.699l-2.699-6.566h5.478L164.826,89.938
				z M159.348,98.393h5.478l-3.691,11.392h-5.478L159.348,98.393z M190.508,87.041h-5.279V85.81c0-0.238-0.086-0.45-0.258-0.635
				c-0.172-0.185-0.377-0.278-0.615-0.278h-13.298v2.144h-5.279v-2.144v-3.929h5.279h15.084c0.582,0,1.137,0.114,1.667,0.341
				c0.529,0.227,0.992,0.541,1.389,0.942c0.397,0.401,0.715,0.868,0.953,1.403c0.238,0.535,0.357,1.095,0.357,1.679V87.041z
				 M190.508,100.14h-9.606v9.487h-5.517v-9.487h-9.606v-3.93h9.606v-1.389h5.517v1.389h9.606V100.14z M173.797,101.41l-2.501,8.217
				h-5.518l2.501-8.217H173.797z M177.488,87.953l-4.763,5.835h-6.113l4.763-5.835H177.488z M183.641,93.788l-4.763-5.835h6.153
				l4.723,5.835H183.641z M190.508,109.626h-5.517l-2.461-8.217h5.478L190.508,109.626z"/>
			<path d="M228.138,82.119l3.453-0.04v3.057h-4.644l-0.397,1.032h-6.51l0.436-1.032h-12.623l0.397,1.032
				h-6.479l-0.437-1.032h-4.646v-3.057l3.453,0.04l-0.395-1.032h6.472l0.397,0.992l15.049,0.04l0.397-1.032h6.472L228.138,82.119z
				 M229.885,97.996h1.707v2.779h-1.707v2.54h0.953v2.819h-0.992c-0.186,1.006-0.675,1.853-1.469,2.54
				c-0.794,0.689-1.734,1.032-2.818,1.032h-6.748l1.31-2.381h3.612c0.185,0,0.337-0.059,0.457-0.179
				c0.119-0.119,0.178-0.258,0.178-0.417v-0.595v-0.04h-20.284h-5.517v-2.739v-2.58H196.7v-2.779h1.866v-2.62v-2.779h5.517h25.801
				v1.24v1.52V97.996z M205.036,87.199l-0.595,1.071h26.397v2.779h-33.899l2.342-3.85H205.036z M224.367,95.376h-20.284v2.62h7.304
				l-0.834-1.985h5.795l0.834,1.985h7.184V95.376z M224.367,100.934h-20.284v2.381l7.343,0.04l-0.714-1.707h5.795l0.715,1.667h7.145
				V100.934z"/>
			<path d="M237.903,95.853l4.684-4.049h-4.763v-3.929h6.827v-1.429h-1.35h-2.937h-2.54l1.866-5.319h5.478
				l-0.476,1.389h10.4v3.929h-4.922v1.429h5.16v3.929h-2.937l3.454,4.049h-5.518l-2.54-3.017l-3.493,3.017H237.903z M238.3,109.706
				v-3.453v-1.587v-2.699v-1.588v-3.1v-0.392h28.143h5.756v3.521v1.584v2.532v0.158c-0.027,0.713-0.153,1.372-0.377,1.979
				c-0.225,0.607-0.536,1.134-0.933,1.583c-0.397,0.449-0.86,0.805-1.389,1.068c-0.53,0.264-1.085,0.395-1.667,0.395h-23.896H238.3z
				 M243.937,101.966h22.507v-1.588h-22.507V101.966z M243.937,106.213h21.237c0.37,0,0.675-0.142,0.913-0.426
				c0.238-0.284,0.357-0.632,0.357-1.045v-0.078h-22.507V106.213z M256.917,81.126h15.759v0.357v3.573v6.43
				c0,0.609-0.113,1.178-0.337,1.707c-0.225,0.53-0.536,0.993-0.933,1.389c-0.397,0.397-0.86,0.709-1.389,0.933
				c-0.53,0.225-1.099,0.338-1.707,0.338h-11.392v-1.548v-2.382v-6.867v-3.573V81.126z M267.158,85.056h-4.724v6.867h3.493
				c0.344,0,0.635-0.119,0.873-0.357c0.238-0.238,0.357-0.529,0.357-0.873V85.056z"/>
			<path d="M291.768,107.245c0.159,0,0.264-0.04,0.318-0.119c0-0.026,0.04-0.079,0.119-0.159l0.079-0.199
				v-2.103h-8.375v1.349l-0.873,3.85h-4.326l0.754-3.85V90.771h14.131c0.926,0,1.727,0.337,2.401,1.013
				c0.675,0.675,1.012,1.475,1.012,2.401v12.464c0,0.635-0.079,1.138-0.238,1.508c-0.159,0.371-0.397,0.715-0.714,1.032
				c-0.238,0.265-0.503,0.451-0.794,0.556c-0.317,0.079-0.609,0.119-0.873,0.119h-4.366l1.111-2.619H291.768z M282.996,80.927h5.121
				l-2.342,4.962h5.637l-0.873-2.223h4.882l2.183,5.597h-2.898v0.039h-15.362L282.996,80.927z M283.909,94.265v2.104h8.375v-0.834
				c0-0.343-0.126-0.641-0.377-0.893c-0.252-0.251-0.55-0.377-0.893-0.377H283.909z M292.284,101.608v-2.183h-8.375v2.183H292.284z
				 M313.958,91.01l-1.786,3.533h-9.765c-0.53,0-1.006-0.093-1.429-0.278c-0.503-0.185-0.913-0.449-1.23-0.794
				c-0.344-0.317-0.609-0.715-0.794-1.191c-0.212-0.503-0.318-0.993-0.318-1.469v-9.606h5.16v5.399l3.89-4.962h5.16l-6.47,8.137
				h-2.58c0,0.317,0.105,0.622,0.317,0.913c0.291,0.213,0.596,0.318,0.913,0.318H313.958z M313.958,105.816l-1.786,3.493h-9.765
				c-0.556,0-1.032-0.093-1.429-0.278c-0.238-0.079-0.456-0.191-0.655-0.337c-0.198-0.145-0.391-0.298-0.575-0.457
				c-0.344-0.291-0.609-0.687-0.794-1.191c-0.212-0.476-0.318-0.965-0.318-1.469v-9.527h5.16v5.399l3.89-5.041h5.16l-6.47,8.177
				h-2.58c0,0.371,0.105,0.661,0.317,0.873c0.291,0.239,0.596,0.357,0.913,0.357H313.958z"/>
		</g>
	</g>
</g>
</svg>
