<svg id="_层_2" xmlns="http://www.w3.org/2000/svg" viewBox="0 0 209.16 209.16"><g id="_层_1-2"><g><path d="M156.01,0H53.13C23.79,0,0,23.79,0,53.13v102.95c0,29.31,23.76,53.08,53.08,53.08h103.01c29.31,0,53.07-23.76,53.07-53.08V53.13c0-29.22-23.91-53.13-53.14-53.13ZM31.73,55.85c.23-.25,.66-.31,.97-.14l8.32,4.71c2.81,1.43,5.48,3.06,8.39,4.31,2.91,1.25,5.67,2.74,8.69,3.73,2.97,1.1,5.88,2.28,8.95,3.09,12.1,3.67,24.79,5.63,37.5,5.64,12.73-.01,25.41-1.98,37.5-5.65,3.08-.81,5.99-2,8.95-3.1,3.03-.98,5.78-2.49,8.69-3.72,2.9-1.26,5.56-2.89,8.39-4.32l8.31-4.71c.37-.22,.85-.11,1.1,.22,.1,.15,.13,.33,.1,.5,.01,.27-.08,.55-.27,.72-.34,.33-.68,.65-1.03,.97-.03,.19-.11,.37-.25,.5-4.86,4.65-9.98,9.07-15.43,13.14-5.52,3.84-11.33,7.36-17.47,9.94-12.21,5.42-25.39,8.17-38.58,8.27-13.18-.1-26.36-2.86-38.56-8.28-6.14-2.59-11.93-6.1-17.45-9.95-5.45-4.07-10.56-8.48-15.42-13.14-.14-.13-.22-.31-.25-.49-.34-.33-.69-.65-1.03-.98-.2-.18-.28-.45-.26-.71-.03-.19,.02-.38,.16-.54Zm158.42,99.67c0,19.12-15.5,34.63-34.63,34.63h-40.39v-4.88c0-5.37-3.83-10.17-9.14-10.87-6.43-.85-11.98,4.19-11.98,10.47v5.27H53.62c-19.12,0-34.63-15.5-34.63-34.63v-63.33c0-7.47,8.93-11.24,14.37-6.14,18.71,17.37,43.75,28.04,71.21,28.04s52.49-10.67,71.2-28.04c5.45-5.1,14.37-1.33,14.37,6.14v63.33Z"/><g><path class="cls-1" d="M143.32,134c-5.82,0-10.57,4.75-10.57,10.57v10.56c0,5.82,4.75,10.57,10.57,10.57s10.56-4.75,10.56-10.57v-10.56c0-5.82-4.75-10.57-10.56-10.57Z"/><path class="cls-1" d="M65.83,134c-5.8,0-10.56,4.75-10.56,10.57v10.56c0,5.82,4.75,10.57,10.56,10.57s10.57-4.75,10.57-10.57v-10.56c0-5.82-4.75-10.57-10.57-10.57Z"/></g></g></g></svg>
