<svg t="1738923267053" class="icon" viewBox="0 0 1024 1024" version="1.1" xmlns="http://www.w3.org/2000/svg" p-id="7199" width="22" height="22"><path d="M512 512m-460.8 0a460.8 460.8 0 1 0 921.6 0 460.8 460.8 0 1 0-921.6 0Z" fill="#FFAB5F" p-id="7200"></path><path d="M749.056 245.248c-17.92 0-32.256 14.336-32.256 32.256s21.504 59.392 32.256 59.392 32.256-41.472 32.256-59.392-14.336-32.256-32.256-32.256zM828.928 330.752c-11.776-13.312-32.256-14.848-45.568-3.072-13.312 11.776-30.208 55.296-23.04 63.488 7.168 8.192 52.736-3.072 66.048-14.848s14.336-32.256 2.56-45.568zM637.952 287.232H386.048c-54.784 0-98.816 44.544-98.816 98.816v251.904c0 54.784 44.544 98.816 98.816 98.816h251.904c54.784 0 98.816-44.544 98.816-98.816V386.048c0-54.784-44.032-98.816-98.816-98.816z m7.168 151.552v60.928c0 72.192-58.368 130.56-130.56 130.56S384 571.392 384 499.2V438.784c-6.656-4.608-10.752-11.776-10.752-19.968 0-13.312 10.752-24.064 24.064-24.064s24.064 10.752 24.064 24.064c0 8.192-4.096 15.872-10.752 19.968v60.928c0 56.832 46.592 103.424 103.424 103.424s103.424-46.592 103.424-103.424V438.784c-6.656-4.608-10.752-11.776-10.752-19.968 0-13.312 10.752-24.064 24.064-24.064s24.064 10.752 24.064 24.064c1.024 8.192-3.072 15.36-9.728 19.968z" fill="#FFFFFF" p-id="7201"></path></svg>
