<svg xmlns="http://www.w3.org/2000/svg" viewBox="0 0 319.28 319.2"><path d="M480.45,520.68c-2.77,6.25-4.72,12.52-8.1,17.89-8.76,13.9-21.72,21.75-38.19,22-32.18.44-64.36.19-96.53.21-16.22,0-32.43.1-48.65,0-24.33-.18-43.39-16.32-47.65-40.27a52.26,52.26,0,0,1-.56-8.94q0-54.45,0-108.88c0-28.88,20.67-49.4,49.59-49.41,45.4,0,90.81.63,136.19-.24,28.27-.54,48.42,16.35,53.09,40.6,1.15-.41,2.27-.76,3.36-1.2l53.42-21.32c13-5.18,23.57,1.9,23.58,15.86q0,70.15,0,140.31c0,13.67-10.7,20.91-23.36,15.88q-26.71-10.64-53.39-21.39C482.21,521.3,481.15,520.94,480.45,520.68ZM360.37,385.22q-34.78,0-69.58,0c-12,0-18.22,6.21-18.22,18.18q0,53.69,0,107.37c0,11.64,6.45,18.15,18,18.16q70,0,139.92,0c11.38,0,17.78-6.51,17.79-17.93q0-53.88,0-107.75c0-11.77-6.21-18-17.95-18Q395.35,385.19,360.37,385.22ZM527.8,504.91v-96C512.19,415.14,497,421.15,482,427.36c-.9.37-1.62,2.32-1.63,3.54-.1,17.46,0,34.92-.1,52.38,0,2,.45,3.11,2.47,3.9,14.37,5.64,28.68,11.42,43,17.15A20.23,20.23,0,0,0,527.8,504.91Z" transform="translate(-240.74 -241.6)"/><path d="M281.21,284.19c.07-6,1.66-9.7,4.81-12.65,24.45-22.87,53.35-32.75,86.65-29.25,23.17,2.43,43.28,11.88,60.46,27.58,7.85,7.17,8.8,16.76,2.44,23.79s-16.15,6.83-23.92-.22c-28.73-26.05-70.77-26.94-100-2.12-1.61,1.37-3.07,2.95-4.77,4.2-5.28,3.89-11,4.49-16.89,1.56S281.25,289.11,281.21,284.19Z" transform="translate(-240.74 -241.6)"/><path d="M360.56,294.85c14.1.34,26.46,5.16,36.67,15.12,6.76,6.6,7.1,16.2.91,22.77s-15.88,6.65-22.8.39c-9.48-8.58-20.13-8.57-29.79,0-7,6.22-16.75,6-22.83-.44s-5.65-16.5,1.25-23.07C334.19,299.94,346.42,295.16,360.56,294.85Z" transform="translate(-240.74 -241.6)"/></svg>