<svg xmlns="http://www.w3.org/2000/svg" viewBox="0 0 495.74 512"><path d="M196,657c-7.66-3.39-16.05-5.72-22.83-10.38-13.3-9.14-20-22.73-20.06-38.84q-.33-87.21,0-174.43c.12-26.76,21.4-47.76,48.74-49.11,1.33-.06,2.66-.06,4-.06q194.91,0,389.84,0c24,0,43.11,12.76,50,34a61.84,61.84,0,0,1,2.8,18.64q.32,83.71.1,167.44c0,27.49-15.48,46.32-42.31,52a5.25,5.25,0,0,0-1.29.7Zm205-30H594.93c15.93,0,23.69-7.67,23.69-23.5q0-83,0-165.94c0-15.52-7.89-23.37-23.38-23.37H206.37C190.84,414.19,183,422,183,437.5V603.44c0,15.91,7.65,23.56,23.57,23.56Z" transform="translate(-152.93 -145)"/><path d="M504,145c11.74,6.58,19,17.46,26.2,28.15,40.81,60.7,33.17,142.06-18,194.27-6.94,7.08-16.32,7.72-22.58,1.56s-5.95-15,.93-22.24c26.17-27.44,38.09-60.15,35.26-97.88-2.23-29.8-14.33-55.42-35-77-9.39-9.79-7-21,5.37-26.29A5.41,5.41,0,0,0,497,145Z" transform="translate(-152.93 -145)"/><path d="M305,145c4.69,2.31,9.1,4.95,10.61,10.43,1.88,6.82-.6,12.16-5.38,17.11-18.19,18.88-29.64,41.27-33.39,67.27-5.83,40.43,5.35,75.65,33,105.76a25.82,25.82,0,0,1,6,10c1.78,6.53-1.68,12.88-7.46,15.92-6.11,3.22-13,2.06-18.27-3.28-14.67-14.87-26.59-31.76-33.71-51.4-22.27-61.44-11.69-116.74,32.45-165.23,2.47-2.72,6.07-4.42,9.15-6.6Z" transform="translate(-152.93 -145)"/><path d="M401,212.82a46.43,46.43,0,0,1-.17,92.85c-25.67,0-46.89-21.26-46.64-46.83A46.49,46.49,0,0,1,401,212.82Zm-.09,30A16.44,16.44,0,0,0,384.22,259a16.79,16.79,0,0,0,16.46,16.65,16.43,16.43,0,0,0,16.58-16.39A16.13,16.13,0,0,0,400.94,242.8Z" transform="translate(-152.93 -145)"/><path d="M504,265c-.28,19-8.81,40.59-26.07,58.61-6.63,6.91-16,7.37-22.19,1.29s-6-14.79.45-21.88c23.9-26.29,23.95-61.41.11-87.47-6.64-7.26-6.78-16.17-.33-22.23s15.36-5.39,22.19,1.65C494.74,212,504,235,504,265Z" transform="translate(-152.93 -145)"/><path d="M297.51,258.81c.26-24.47,8.81-46.05,26.1-64.05,6.77-7,15.86-7.5,22.17-1.31,6,5.9,5.85,15-.44,21.9-23.89,26.08-23.94,61.6-.12,87.46,6.49,7,6.63,16.34.33,22.26s-15.53,5.28-22.18-1.72C306.34,305.39,297.78,284,297.51,258.81Z" transform="translate(-152.93 -145)"/><path d="M521.21,567c16.95,0,33.43,0,49.91,0,6,0,10.64,2.66,13.45,8a14.28,14.28,0,0,1-.7,15.2,14,14,0,0,1-12.15,6.75c-22,.1-44,.16-66,0-8.6-.06-14.81-6.39-14.83-15q-.14-61.25,0-122.47c0-8.63,6-15.05,14.69-15.15q34-.42,68,0a14.64,14.64,0,0,1,14.74,15.61c-.33,8.27-6.65,14.18-15.54,14.23-15.33.09-30.66,0-46,0h-5.64V498h32.56c3,0,6,0,9,0,9,.14,15.44,6.29,15.51,14.8S572,527.77,563,527.9c-12.5.19-25,.06-37.49.06h-4.28Z" transform="translate(-152.93 -145)"/><path d="M419.73,529.78,434.9,479.7c2.36-7.8,4.66-15.61,7.07-23.4,2.88-9.31,10.64-13.87,19.12-11.31,8.12,2.45,12.36,10.69,9.68,19.63q-18.09,60.2-36.39,120.32c-2.34,7.68-7.23,11.33-14.5,11.37-7.51,0-12.62-3.75-15-11.46q-18.23-60.17-36.34-120.35c-2.67-8.9,1.59-17.13,9.79-19.54s16.06,2,18.84,11c7,22.73,13.82,45.5,20.72,68.26C418.36,525.65,418.84,527.06,419.73,529.78Z" transform="translate(-152.93 -145)"/><path d="M243.07,567c13.38,0,26,0,38.67,0,9.82,0,16.44,6,16.52,14.81S291.74,596.94,282,597q-26.24.1-52.47,0c-10.3,0-16.47-6.2-16.48-16.53q-.06-59.72,0-119.44c0-9.88,6.53-17,15.27-16.76s14.69,7,14.7,16.76q0,50,0,100Z" transform="translate(-152.93 -145)"/><path d="M314.92,520.36q0-29.49,0-59c0-10.17,6-17.06,14.83-17.14s15.14,6.95,15.15,16.92q0,59.49,0,119c0,10-6.32,16.92-15.18,16.84s-14.78-6.8-14.8-16.62Q314.89,550.35,314.92,520.36Z" transform="translate(-152.93 -145)"/></svg>