<?xml version="1.0" encoding="UTF-8"?>
<svg id="_图层_1" data-name="图层 1" xmlns="http://www.w3.org/2000/svg" xmlns:xlink="http://www.w3.org/1999/xlink" viewBox="0 0 200 200">
  <defs>
    <style>
      .cls-1 {
        fill: url(#_未命名的渐变_23-2);
      }

      .cls-2 {
        fill: url(#_未命名的渐变_20-2);
      }

      .cls-3 {
        fill: #565656;
        fill-rule: evenodd;
      }

      .cls-4 {
        opacity: .55;
      }

      .cls-5 {
        fill: url(#_未命名的渐变_23);
      }

      .cls-6 {
        fill: url(#_未命名的渐变_21);
      }

      .cls-7 {
        fill: url(#_未命名的渐变_22);
      }

      .cls-8 {
        fill: url(#_未命名的渐变_20);
      }
    </style>
    <radialGradient id="_未命名的渐变_23" data-name="未命名的渐变 23" cx="-455.58" cy="-286.97" fx="-455.58" fy="-286.97" r=".19" gradientTransform="translate(47140.73 26405.62) rotate(61.39) scale(100.24 -100.24)" gradientUnits="userSpaceOnUse">
      <stop offset="0" stop-color="#cacaca"/>
      <stop offset="1" stop-color="#a1a1a1"/>
    </radialGradient>
    <radialGradient id="_未命名的渐变_23-2" data-name="未命名的渐变 23" cx="-456.72" cy="-287.98" fx="-456.72" fy="-287.98" r=".19" gradientTransform="translate(-47096.85 26469.62) rotate(118.61) scale(100.24)" xlink:href="#_未命名的渐变_23"/>
    <radialGradient id="_未命名的渐变_22" data-name="未命名的渐变 22" cx="-457.64" cy="-289.81" fx="-457.64" fy="-289.81" r=".19" gradientTransform="translate(257061.68 268164.81) rotate(78.56) scale(685.62 -685.62)" gradientUnits="userSpaceOnUse">
      <stop offset="0" stop-color="#e8e8e8"/>
      <stop offset=".12" stop-color="#e1e1e1"/>
      <stop offset=".42" stop-color="#d1d1d1"/>
      <stop offset=".64" stop-color="#c2c2c2"/>
      <stop offset="1" stop-color="#bababa"/>
    </radialGradient>
    <radialGradient id="_未命名的渐变_21" data-name="未命名的渐变 21" cx="-457.64" cy="-289.81" fx="-457.64" fy="-289.81" r=".19" gradientTransform="translate(257061.68 268164.81) rotate(78.56) scale(685.62 -685.62)" gradientUnits="userSpaceOnUse">
      <stop offset=".56" stop-color="#7d7d7d" stop-opacity="0"/>
      <stop offset="1" stop-color="#7d7d7d" stop-opacity=".3"/>
    </radialGradient>
    <linearGradient id="_未命名的渐变_20" data-name="未命名的渐变 20" x1="66.15" y1="-839.97" x2="78.59" y2="-857.08" gradientTransform="translate(0 -779.9) scale(1 -1)" gradientUnits="userSpaceOnUse">
      <stop offset="0" stop-color="#313131"/>
      <stop offset="1" stop-color="#181818"/>
    </linearGradient>
    <linearGradient id="_未命名的渐变_20-2" data-name="未命名的渐变 20" x1="122.15" y1="-839.97" x2="134.59" y2="-857.08" xlink:href="#_未命名的渐变_20"/>
  </defs>
  <g class="cls-4">
    <circle class="cls-5" cx="28.44" cy="93.78" r="12.44"/>
    <circle class="cls-1" cx="171.56" cy="93.78" r="12.44"/>
    <circle class="cls-7" cx="100" cy="100" r="74.67"/>
    <circle class="cls-6" cx="100" cy="100" r="74.67"/>
    <path class="cls-8" d="M81.33,68.11c0,5.15-4.18,9.33-9.33,9.33s-9.33-4.18-9.33-9.33,4.18-9.33,9.33-9.33,9.33,4.18,9.33,9.33Z"/>
    <path class="cls-2" d="M137.33,68.11c0,5.15-4.18,9.33-9.33,9.33s-9.33-4.18-9.33-9.33,4.18-9.33,9.33-9.33,9.33,4.18,9.33,9.33Z"/>
    <path class="cls-3" d="M85.22,106.22c0-2.15,1.74-3.89,3.89-3.89h21.78c2.15,0,3.89,1.74,3.89,3.89s-1.74,3.89-3.89,3.89h-21.78c-2.15,0-3.89-1.74-3.89-3.89Z"/>
  </g>
</svg>