<?xml version="1.0" encoding="UTF-8"?>
<svg id="_图层_1" data-name="图层 1" xmlns="http://www.w3.org/2000/svg" xmlns:xlink="http://www.w3.org/1999/xlink" viewBox="0 0 200 200">
  <defs>
    <style>
      .cls-1 {
        fill: url(#_未命名的渐变_23-2);
      }

      .cls-2 {
        fill: url(#_未命名的渐变_20-2);
      }

      .cls-3 {
        fill: #565656;
        fill-rule: evenodd;
      }

      .cls-4 {
        fill: #fff;
      }

      .cls-5 {
        opacity: .55;
      }

      .cls-6 {
        fill: url(#_未命名的渐变_23);
      }

      .cls-7 {
        fill: url(#_未命名的渐变_21);
      }

      .cls-8 {
        fill: url(#_未命名的渐变_22);
      }

      .cls-9 {
        fill: url(#_未命名的渐变_20);
      }
    </style>
    <radialGradient id="_未命名的渐变_23" data-name="未命名的渐变 23" cx="3.27" cy="-519.19" fx="3.27" fy="-519.19" r=".19" gradientTransform="translate(45550.89 -25120.32) rotate(61.39) scale(100.24 -100.24)" gradientUnits="userSpaceOnUse">
      <stop offset="0" stop-color="#cacaca"/>
      <stop offset="1" stop-color="#a1a1a1"/>
    </radialGradient>
    <radialGradient id="_未命名的渐变_23-2" data-name="未命名的渐变 23" cx="6.52" cy="-512.16" fx="6.52" fy="-512.16" r=".19" gradientTransform="translate(-44588.89 -25056.32) rotate(118.61) scale(100.24)" xlink:href="#_未命名的渐变_23"/>
    <radialGradient id="_未命名的渐变_22" data-name="未命名的渐变 22" cx="1.61" cy="-517.64" fx="1.61" fy="-517.64" r=".19" gradientTransform="translate(347709.29 -71437.77) rotate(78.56) scale(685.62 -685.62)" gradientUnits="userSpaceOnUse">
      <stop offset="0" stop-color="#e8e8e8"/>
      <stop offset=".12" stop-color="#e1e1e1"/>
      <stop offset=".42" stop-color="#d1d1d1"/>
      <stop offset=".64" stop-color="#c2c2c2"/>
      <stop offset="1" stop-color="#bababa"/>
    </radialGradient>
    <radialGradient id="_未命名的渐变_21" data-name="未命名的渐变 21" cx="1.61" cy="-517.64" fx="1.61" fy="-517.64" r=".19" gradientTransform="translate(347709.29 -71437.77) rotate(78.56) scale(685.62 -685.62)" gradientUnits="userSpaceOnUse">
      <stop offset=".56" stop-color="#7d7d7d" stop-opacity="0"/>
      <stop offset="1" stop-color="#7d7d7d" stop-opacity=".3"/>
    </radialGradient>
    <linearGradient id="_未命名的渐变_20" data-name="未命名的渐变 20" x1="66.15" y1="-1291.08" x2="78.59" y2="-1308.2" gradientTransform="translate(0 -1234.13) scale(1 -1)" gradientUnits="userSpaceOnUse">
      <stop offset="0" stop-color="#313131"/>
      <stop offset="1" stop-color="#181818"/>
    </linearGradient>
    <linearGradient id="_未命名的渐变_20-2" data-name="未命名的渐变 20" x1="122.15" y1="-1291.08" x2="134.59" y2="-1308.2" xlink:href="#_未命名的渐变_20"/>
  </defs>
  <g class="cls-5">
    <circle class="cls-6" cx="28.44" cy="93.78" r="12.44"/>
    <circle class="cls-1" cx="171.56" cy="93.78" r="12.44"/>
    <circle class="cls-8" cx="100" cy="100" r="74.67"/>
    <circle class="cls-7" cx="100" cy="100" r="74.67"/>
    <path class="cls-4" d="M90.67,65c0,10.31-8.36,18.67-18.67,18.67s-18.67-8.36-18.67-18.67,8.36-18.67,18.67-18.67,18.67,8.36,18.67,18.67Z"/>
    <path class="cls-4" d="M146.67,65c0,10.31-8.36,18.67-18.67,18.67s-18.67-8.36-18.67-18.67,8.36-18.67,18.67-18.67,18.67,8.36,18.67,18.67Z"/>
    <path class="cls-9" d="M81.33,65c0,5.15-4.18,9.33-9.33,9.33s-9.33-4.18-9.33-9.33,4.18-9.33,9.33-9.33,9.33,4.18,9.33,9.33Z"/>
    <path class="cls-2" d="M137.33,65c0,5.15-4.18,9.33-9.33,9.33s-9.33-4.18-9.33-9.33,4.18-9.33,9.33-9.33,9.33,4.18,9.33,9.33Z"/>
    <path class="cls-3" d="M73.21,122.2c1.27-1.16,3.24-1.07,4.4.2,4.94,5.4,12.35,9.49,22.4,9.49s17.46-4.09,22.4-9.49c1.16-1.27,3.13-1.36,4.4-.2,1.27,1.16,1.36,3.13.2,4.4-6.04,6.6-15.09,11.51-26.99,11.51s-20.95-4.91-26.99-11.51c-1.16-1.27-1.07-3.24.2-4.4Z"/>
  </g>
</svg>