<?xml version="1.0" encoding="UTF-8"?>
<svg id="_图层_2" data-name="图层 2" xmlns="http://www.w3.org/2000/svg" xmlns:xlink="http://www.w3.org/1999/xlink" viewBox="0 0 161.4 129.79">
  <defs>
    <style>
      .cls-1 {
        fill: url(#_未命名的渐变_22-2);
      }

      .cls-2 {
        fill: url(#_未命名的渐变_22-4);
      }

      .cls-3 {
        fill: url(#_未命名的渐变_22-3);
      }

      .cls-4 {
        fill: url(#_未命名的渐变_22);
      }
    </style>
    <linearGradient id="_未命名的渐变_22" data-name="未命名的渐变 22" x1="38.31" y1="57.11" x2="38.31" y2=".12" gradientUnits="userSpaceOnUse">
      <stop offset="0" stop-color="#ecb28b"/>
      <stop offset="1" stop-color="#fcddc4"/>
    </linearGradient>
    <linearGradient id="_未命名的渐变_22-2" data-name="未命名的渐变 22" x1="123.18" x2="123.18" y2="0" xlink:href="#_未命名的渐变_22"/>
    <linearGradient id="_未命名的渐变_22-3" data-name="未命名的渐变 22" x1="38.37" y1="129.79" x2="38.37" y2="72.68" xlink:href="#_未命名的渐变_22"/>
    <linearGradient id="_未命名的渐变_22-4" data-name="未命名的渐变 22" x1="123.15" y1="129.79" x2="123.15" y2="72.68" xlink:href="#_未命名的渐变_22"/>
  </defs>
  <g id="_图层_1-2" data-name="图层 1">
    <g>
      <path class="cls-4" d="M27.07,2.97l.42,3.27h30.64l1.39-3.33c1.01-1.86,2.36-2.79,4.06-2.79h9.21l-2.54,6.12h6.36l-.42,3.27c-.12.69-.45,1.27-1,1.76-.55.48-1.16.73-1.85.73h-23.07l-11.26,14.48h35.85l-.36,2.54c-.16,1.05-.64,1.93-1.42,2.63-.79.71-1.69,1.06-2.7,1.06h-34.52l-12.66,15.75c-5.01,5.77-10.7,8.66-17.08,8.66H0l19.8-24.41H3.57l.42-3.15c.16-.85.57-1.57,1.24-2.18.67-.61,1.4-.91,2.21-.91h15.93l10.84-14.48H7.45l.42-3.27c.12-.73.44-1.32.97-1.79.52-.46,1.13-.7,1.82-.7h4.72L14.66.12h9.21c1.7,0,2.77.95,3.21,2.85ZM58.99,36.03l12.05,21.08h-2.91c-6.78,0-12.05-3.03-15.81-9.08l-7.45-12.84h12.66c.61,0,1.09.28,1.45.85Z"/>
      <path class="cls-1" d="M92.23,22.53h11.57l-6.06,29.01c-.36,1.57-1.11,2.89-2.24,3.94-1.17,1.09-2.48,1.63-3.94,1.63h-6.24l6.9-34.58ZM91.27,11.14l13.63,2.67-.73,5.57-10.54-2.06c-.93-.2-1.64-.67-2.12-1.39-.48-.77-.67-1.66-.55-2.67l.3-2.12ZM92.54,1.21l13.63,2.6-.73,5.57-10.54-2c-.89-.2-1.57-.68-2.06-1.45-.48-.77-.67-1.66-.54-2.67l.24-2.06ZM104.71,50.51c-.61.53-.99,1.21-1.15,2.06l-.3,2.3h48.69c.69,0,1.29-.22,1.82-.67.52-.45.83-1.01.91-1.7l.42-2.79h-19.44l2.91-20.77h15.75c.73,0,1.34-.22,1.85-.67.5-.45.82-1.03.94-1.76l.42-2.73h-18.23l1.94-13.81h15.99c.89,0,1.67-.29,2.33-.88s1.06-1.32,1.18-2.21l.3-2.06h-19.38v-.85c-.04-1.13-.45-2.08-1.24-2.85-.79-.77-1.73-1.15-2.82-1.15h-8.3l.12,4.85h-15.75c-.89,0-1.67.28-2.33.85s-1.06,1.31-1.18,2.24l-.3,2.06h19.14l-1.94,13.81h-15.56c-.77,0-1.43.25-2,.76-.57.5-.91,1.14-1.03,1.91l-.36,2.48h18.23l-2.91,20.77h-16.53c-.85,0-1.57.26-2.18.79Z"/>
      <path class="cls-3" d="M28.46,81.52l-7.81,15.02h2.12c1.33,0,2.26.95,2.79,2.85l3.03,14.41h-2.36c-3.23,0-5.55-2.34-6.96-7.02l-.18-.85-2.79,23.86H5.33l1.76-15.62H.12l16.96-33.31H4.97l.42-3.45c.04-.36.2-.68.48-.97.24-.24.54-.36.91-.36h5.39l.12-1.03c.12-.68.4-1.25.85-1.69s.99-.67,1.64-.67h8.72l-.42,3.39h4.66c.36,0,.67.16.91.48.28.32.38.69.3,1.09l-.48,3.88ZM43.67,99.81h29.37l-2.97,23.26c-.24,1.86-1.05,3.45-2.42,4.78-1.33,1.29-2.87,1.94-4.6,1.94h-29.55c-1.7,0-3.07-.65-4.12-1.94-1.05-1.33-1.45-2.93-1.21-4.78l3.03-23.26h11.2l-.61,4.91-.18,1.27-.73,5.39h3.94l.85-6.66h-2.6l.61-4.91ZM47.06,84.55l.61-4.91h27.01l-1.57,12.23c-.2,1.66-.91,3.07-2.12,4.24-1.21,1.17-2.56,1.76-4.06,1.76h-29.07c-1.49,0-2.71-.59-3.63-1.76-.93-1.17-1.29-2.58-1.09-4.24l1.57-12.23h11.57l-.61,4.91-.18,1.33-.73,5.63c-.04.4.06.75.3,1.03.2.32.48.48.85.48h14.11c.36,0,.71-.16,1.03-.48.32-.28.5-.62.55-1.03l.91-6.96h-15.44ZM35.19,73.37c.44-.42.97-.64,1.57-.64h39.85l-.36,2.54c-.08.65-.35,1.19-.82,1.63-.46.45-1,.67-1.6.67h-39.79l.3-2.54c.12-.68.4-1.24.85-1.66ZM44.15,116.28h-3.88l-.85,6.42c-.08.61.06,1.13.42,1.57.32.44.79.67,1.39.67h1.82l1.09-8.66ZM54.69,124.94h1.88c.57,0,1.07-.22,1.51-.67s.71-.97.79-1.57l.85-6.42h-3.88l-1.15,8.66ZM56.44,111.38h3.88l.85-6.66h-3.88l-.85,6.66Z"/>
      <path class="cls-2" d="M91.45,96.18c.2-1.05.69-1.88,1.45-2.48.77-.65,1.65-.97,2.66-.97h5.27l-6.42,33.07c-.24,1.21-.81,2.18-1.7,2.91-.89.73-1.9,1.09-3.03,1.09h-4.78l6.54-33.61ZM103.68,89.82h-13.56l.42-2.91c.08-.56.32-1.02.73-1.36.4-.34.89-.51,1.45-.51h11.63l.97-7.27h-13.08l.12-1.09c.16-1.09.63-1.98,1.39-2.67.77-.73,1.67-1.09,2.73-1.09h34.64l-.18,1.21c-.2,1.17-.77,2.12-1.7,2.85-.73.53-1.51.79-2.36.79h-9.51l-.97,7.27h13.44l-.18,1.51c-.16.97-.57,1.76-1.21,2.36-.69.61-1.47.91-2.36.91h-10.42l-5.39,39.97h-11.99l5.39-39.97ZM117.37,97.39c.16-1.37.69-2.48,1.57-3.33.89-.89,1.98-1.33,3.27-1.33h4.3l-2.48,32.4c-.12,1.33-.65,2.44-1.57,3.33-.93.89-2.04,1.33-3.33,1.33h-4.24l2.48-32.4ZM134.14,79.52c.24-1.66.97-3.01,2.18-4.06,1.17-1.09,2.54-1.63,4.12-1.63h4.3l-5.75,41.79c-.24,1.74-.97,3.17-2.18,4.3-1.25,1.13-2.71,1.69-4.36,1.69h-4l5.69-42.09ZM152.07,127.85c-1.41,1.29-3.01,1.94-4.78,1.94h-15.93l.12-1.27c.16-1.01.61-1.86,1.33-2.54.73-.65,1.59-.97,2.6-.97h4.78c.61,0,1.13-.22,1.57-.67.44-.44.71-.97.79-1.57l5.94-43.91c.28-1.78,1.07-3.25,2.36-4.42,1.25-1.17,2.74-1.76,4.48-1.76h6.06l-6.78,50.45c-.28,1.86-1.13,3.43-2.54,4.72Z"/>
    </g>
  </g>
</svg>