<?xml version="1.0" encoding="UTF-8"?>
<svg id="_图层_2" data-name="图层 2" xmlns="http://www.w3.org/2000/svg" xmlns:xlink="http://www.w3.org/1999/xlink" viewBox="0 0 70 63">
  <defs>
    <style>
      .cls-1 {
        fill: #fff;
      }

      .cls-1, .cls-2, .cls-3, .cls-4, .cls-5 {
        fill-rule: evenodd;
      }

      .cls-2 {
        fill: url(#_未命名的渐变_3);
      }

      .cls-3 {
        fill: url(#_未命名的渐变_4);
      }

      .cls-4 {
        fill: url(#_未命名的渐变_4-2);
      }

      .cls-5 {
        fill: url(#_未命名的渐变_4-3);
      }
    </style>
    <linearGradient id="_未命名的渐变_4" data-name="未命名的渐变 4" x1="-905.78" y1="540.67" x2="-905.68" y2="540.6" gradientTransform="translate(45934.8 8117.6) scale(50.7 -15)" gradientUnits="userSpaceOnUse">
      <stop offset="0" stop-color="#ffcf02"/>
      <stop offset="1" stop-color="#ffa100"/>
    </linearGradient>
    <linearGradient id="_未命名的渐变_4-2" data-name="未命名的渐变 4" x1="-905.39" y1="540.6" x2="-905.35" y2="540.54" gradientTransform="translate(45940.8 8117.6) scale(50.7 -15)" xlink:href="#_未命名的渐变_4"/>
    <linearGradient id="_未命名的渐变_3" data-name="未命名的渐变 3" x1="-908.11" y1="563.71" x2="-907.32" y2="563.12" gradientTransform="translate(52679 28206.6) scale(58 -50)" gradientUnits="userSpaceOnUse">
      <stop offset="0" stop-color="#ffc002"/>
      <stop offset="1" stop-color="#ffa100"/>
    </linearGradient>
    <linearGradient id="_未命名的渐变_4-3" data-name="未命名的渐变 4" x1="-910.82" y1="542.33" x2="-909.87" y2="542.29" gradientTransform="translate(63761 8587.48) scale(70 -15.8)" xlink:href="#_未命名的渐变_4"/>
  </defs>
  <g id="_图层_1-2" data-name="图层 1">
    <g>
      <path id="_合并形状" data-name="合并形状" class="cls-3" d="M11.4,3l-4.4,12h50.7L17.2.3l-1.2-.3-2.3.4-1.7,1.5-.6,1.1Z"/>
      <path id="_合并形状-2" data-name="合并形状" class="cls-4" d="M59.4,3l4.3,12H13L53.6.3l1.2-.3,2.2.4,1.8,1.5.6,1.1Z"/>
      <path id="Mask" class="cls-2" d="M10.6,13h48.8l1.3.2,2,1.1,1.1,2,.2,1.3v31.6l-.2,2.5-.7,2.4-1,2.1-1.3,1.9-3.6,3-2.1,1-2.4.7-2.5.2H10.6l-1.3-.2-2-1.1-1.1-2-.2-1.3V17.6l.2-1.3,1.1-2,2-1.1,1.3-.2Z"/>
      <path id="Rectangle" class="cls-5" d="M4.6,11l62.1.2,1,.4,1.7,1.7.6,2.3-.2,8.1-1.1,2-2,1.1H3.3l-2-1.1-1.1-2-.2-8.1.2-1.3,1.1-2,2-1.1,1.3-.2Z"/>
      <path id="_矩形" data-name="矩形" class="cls-1" d="M32,11h6v16h-6V11Z"/>
    </g>
  </g>
</svg>