<?xml version="1.0" standalone="no"?><!DOCTYPE svg PUBLIC "-//W3C//DTD SVG 1.1//EN" "http://www.w3.org/Graphics/SVG/1.1/DTD/svg11.dtd"><svg t="1662519865106" class="icon" viewBox="0 0 1024 1024" version="1.1" xmlns="http://www.w3.org/2000/svg" p-id="8378" width="48" height="48" xmlns:xlink="http://www.w3.org/1999/xlink"><path d="M917.333333 981.333333H106.666667c-36.266667 0-64-27.733333-64-64V106.666667c0-36.266667 27.733333-64 64-64h810.666666c36.266667 0 64 27.733333 64 64v810.666666c0 36.266667-27.733333 64-64 64zM128 896h768V128H128v768z" p-id="8379" fill="#004680"></path><path d="M691.2 554.666667H332.8c-23.466667 0-42.666667-19.2-42.666667-42.666667s19.2-42.666667 42.666667-42.666667h358.4c23.466667 0 42.666667 19.2 42.666667 42.666667s-19.2 42.666667-42.666667 42.666667z" p-id="8380" fill="#004680"></path></svg>